<svg width="1128" height="756" viewBox="0 0 1128 756" fill="none" xmlns="http://www.w3.org/2000/svg">
<path fill-rule="evenodd" clip-rule="evenodd" d="M607.819 95.6033C607.964 95.4167 608.296 95.3955 609.043 95.5613C609.043 95.5613 616.405 97.2001 617.152 97.366C618.272 97.5941 618.749 97.843 618.749 98.5066C618.749 98.942 618.396 99.1288 618.396 100.559V113.938H622.917C626.422 113.938 627.273 112.839 627.77 111.906C628.268 110.973 628.911 111.036 629.367 111.16C631.047 111.596 636.729 113.835 636.729 115.639C636.729 116.573 635.692 116.718 635.091 116.718L635.112 116.738H591.87C587.059 116.738 587.058 119.041 585.669 119.331C583.636 119.745 577.187 115.723 575.569 114.395C575.03 113.96 575.237 113.545 575.901 113.607C576.423 113.67 582.994 113.938 584.777 113.938H612.652V101.099C612.652 98.6319 608.899 96.8065 608.38 96.4949L608.358 96.4529C608.006 96.2456 607.654 95.8728 607.819 95.6033ZM597.198 98.9002C600.222 98.9004 602.673 101.352 602.673 104.376C602.672 107.399 600.222 109.85 597.198 109.85C594.174 109.85 591.723 107.399 591.722 104.376C591.722 101.352 594.174 98.9002 597.198 98.9002ZM637.603 74.574C638.101 73.6411 638.744 73.7035 639.2 73.8279C640.88 74.2636 646.562 76.5032 646.562 78.3074C646.562 79.2406 645.525 79.3855 644.924 79.3855L644.944 79.406H609.378V82.9744C609.378 87.137 608.447 89.3983 607.384 90.6258H620.57C624.075 90.6257 624.925 89.5268 625.423 88.5935C625.92 87.6606 626.563 87.7231 627.019 87.8475C628.699 88.283 634.383 90.5226 634.383 92.3269C634.382 93.2601 633.345 93.405 632.744 93.4051L632.764 93.4256H594.21C589.398 93.4256 589.398 95.728 588.009 96.0183C585.976 96.4327 579.527 92.4103 577.909 91.0828C577.37 90.6473 577.577 90.2325 578.241 90.2947C578.762 90.357 585.334 90.6258 587.117 90.6258H603.68C603.636 90.1695 603.633 89.6936 603.633 89.3416V79.406H582.042C577.23 79.4061 577.23 81.7085 575.841 81.9988C573.808 82.4132 567.359 78.3907 565.741 77.0633C565.202 76.6277 565.409 76.213 566.073 76.2752C566.595 76.3375 573.166 76.6062 574.949 76.6062H632.75C636.255 76.6062 637.106 75.5073 637.603 74.574ZM597.037 37.1209C597.224 36.8306 597.576 36.8928 598.157 37.1209C598.738 37.349 611.302 42.159 612.343 42.575C614.085 43.2594 614.521 44.2967 613.505 46.0389C611.956 48.7016 609.896 51.6418 607.221 54.615C606.163 56.1628 608.165 56.0526 609.898 57.115C612.242 58.5668 614.855 59.8529 617.199 61.201C621.077 63.4197 625.038 61.4907 626.344 60.6404C626.946 60.2464 627.465 60.4952 627.88 60.91C632.525 65.576 634.06 69.0604 634.557 69.9939C635.262 71.3419 635.512 72.5037 634.952 73.0223C634.247 73.6652 633.292 73.52 632.193 72.7527C631.073 71.9646 610.355 58.401 609.359 57.8201C608.196 57.1334 605.419 56.9913 603.254 58.6023C596.651 64.6077 587.306 70.2876 574.328 73.5594C573.353 73.8082 573.021 73.6634 572.959 73.3523C572.876 72.9998 573.084 72.6676 573.623 72.5017C598.365 64.8696 604.794 47.9672 605.499 46.5984V46.5779C606.142 45.3543 605.706 43.6122 604.814 42.907C603.735 42.0358 598.076 38.5311 597.66 38.2195C597.204 37.8878 596.768 37.4941 597.037 37.1209Z" fill="black"/>
<path fill-rule="evenodd" clip-rule="evenodd" d="M715.34 88.5975C715.837 87.6645 716.48 87.727 716.936 87.8514C718.616 88.2869 720.877 90.5265 720.877 92.3308C720.877 92.7197 720.696 92.9699 720.442 93.1316C720.451 93.1494 720.457 93.1594 720.458 93.1609C720.168 93.3271 720.168 94.8822 720.168 95.5252V108.695C720.168 116.161 717.45 121.055 716.185 121.055C715.252 121.055 714.402 119.831 714.402 116.181V95.0066C714.402 94.4458 714.421 93.9096 714.51 93.4295H687.03C682.219 93.4295 682.218 95.7319 680.829 96.0223C678.796 96.4366 672.347 92.4142 670.729 91.0867C670.19 90.6512 670.398 90.2364 671.061 90.2986C671.583 90.3609 678.154 90.6297 679.937 90.6297H710.403C714.074 90.6297 714.842 89.5307 715.34 88.5975ZM690.805 67.6941C690.93 67.4871 691.262 67.4666 692.029 67.6531C692.056 67.6591 699.414 69.2922 700.138 69.4578C701.258 69.7066 701.735 69.9348 701.735 70.5984C701.735 71.013 701.383 71.2206 701.383 72.6512V79.1824H724.734C728.239 79.1824 729.09 78.0835 729.588 77.1502C730.085 76.2173 730.728 76.2797 731.184 76.4041C732.865 76.8398 738.547 79.0793 738.547 80.8836C738.547 81.8168 737.509 81.9617 736.908 81.9617L736.928 81.9822H674.026C669.215 81.9823 669.214 84.2846 667.825 84.575C665.792 84.9894 659.343 80.9669 657.725 79.6394C657.186 79.2039 657.394 78.7891 658.057 78.8514C658.579 78.9137 665.15 79.1824 666.933 79.1824H695.617V73.1492C695.617 70.6605 691.863 68.8558 691.344 68.5447C690.971 68.3166 690.64 67.9637 690.805 67.6941ZM689.013 37.1209C689.2 36.8306 689.553 36.8928 690.134 37.1209C690.714 37.349 703.279 42.1591 704.319 42.575C706.061 43.2594 706.497 44.2967 705.481 46.0389C703.932 48.7016 701.872 51.6418 699.198 54.615C698.14 56.1628 700.141 56.0526 701.875 57.115C704.218 58.5668 706.832 59.8529 709.176 61.201C713.054 63.4197 717.015 61.4907 718.321 60.6404C718.922 60.2464 719.441 60.4952 719.856 60.91C724.501 65.576 726.036 69.0603 726.534 69.9939C727.239 71.3419 727.488 72.5037 726.928 73.0223C726.223 73.6652 725.269 73.52 724.17 72.7527C723.05 71.9646 702.332 58.401 701.336 57.8201C700.172 57.1334 697.395 56.9913 695.23 58.6023C688.627 64.6077 679.282 70.2876 666.304 73.5594C665.33 73.8082 664.998 73.6634 664.935 73.3523C664.852 72.9998 665.06 72.6676 665.599 72.5017C690.341 64.8696 696.77 47.9672 697.475 46.5984V46.5779C698.118 45.3543 697.683 43.6122 696.791 42.907C695.712 42.0358 690.052 38.5311 689.636 38.2195C689.18 37.8878 688.744 37.4941 689.013 37.1209Z" fill="black"/>
<path fill-rule="evenodd" clip-rule="evenodd" d="M342.219 274.156C342.406 273.866 342.759 273.928 343.34 274.156C343.924 274.386 356.488 279.195 357.525 279.61C359.267 280.295 359.765 280.792 358.686 282.659C358.375 283.219 357.981 283.8 357.981 285.169V348.714C357.981 356.179 355.265 361.074 354 361.075C353.066 361.075 352.216 359.851 352.216 356.201V314.546C342.45 319.827 333.751 324.112 324.797 327.696V340.981C324.797 348.468 322.059 353.343 320.814 353.343C319.86 353.342 319.031 352.118 319.031 348.469V329.892C314.35 331.585 309.529 333.113 304.388 334.51C299.93 335.712 300.738 336.749 299.328 336.915C296.051 337.288 290.203 332.85 288.73 331.502C288.212 331.025 288.377 330.548 289.061 330.673C292.836 331.357 296.735 331.793 299.472 331.544C317.03 329.938 338.664 320.44 352.216 313.459V285.501L352.236 285.459C352.236 282.016 350.889 280.668 349.997 279.942C348.918 279.071 343.256 275.566 342.842 275.255C342.385 274.923 341.95 274.529 342.219 274.156ZM333.486 290.144C333.984 289.211 334.627 289.274 335.084 289.398C336.764 289.834 342.446 292.074 342.446 293.878C342.446 294.811 341.409 294.956 340.807 294.956L340.828 294.976H317.371C319.603 295.472 323.223 296.276 323.72 296.389C324.84 296.638 325.317 296.867 325.317 297.53C325.317 297.945 325.006 298.069 324.944 299.5C324.944 299.647 325.047 299.716 325.203 299.769C331.627 300.881 336.413 305.097 336.413 310.12C336.413 315.989 329.88 320.758 321.834 320.759C313.787 320.759 307.254 315.989 307.254 310.12C307.254 305.039 312.149 300.785 318.684 299.732L318.68 299.728C319.095 299.645 319.137 299.479 319.033 299.189C318.307 297.178 315.362 295.746 314.927 295.476C314.703 295.34 314.496 295.158 314.4 294.976H313.452C308.641 294.976 308.64 297.279 307.251 297.569C305.218 297.984 298.769 293.961 297.151 292.634C296.612 292.198 296.819 291.783 297.483 291.846C298.005 291.908 304.576 292.177 306.359 292.177H328.634C332.138 292.177 332.988 291.078 333.486 290.144ZM321.834 301.824C316.919 301.824 312.936 305.537 312.936 310.12C312.936 314.703 316.919 318.415 321.834 318.415C326.749 318.415 330.73 314.703 330.73 310.12C330.73 305.537 326.749 301.824 321.834 301.824ZM307.954 281.623C307.581 281.021 307.912 280.711 308.534 281.001C309.011 281.229 315.046 283.676 316.809 284.277C318.572 284.879 319.962 285.46 321.828 285.46H324.441C325.354 285.46 325.831 285.418 326.453 284.982C327.241 284.422 327.926 284.339 328.341 284.464C329.668 284.899 330.891 286.289 330.891 287.513C330.891 288.155 330.186 288.26 329.792 288.26V288.238H322.305C315.959 288.238 317.266 289.814 315.855 289.628C313.781 289.358 309.053 283.407 307.954 281.623Z" fill="black"/>
<path fill-rule="evenodd" clip-rule="evenodd" d="M429.751 274.156C429.937 273.866 430.29 273.928 430.871 274.156C431.456 274.386 444.02 279.195 445.056 279.61C446.799 280.295 447.296 280.792 446.218 282.659C445.906 283.219 445.512 283.8 445.512 285.169V318.247H449.618C453.123 318.247 453.974 317.148 454.471 316.215C454.969 315.282 455.612 315.344 456.068 315.469C457.748 315.904 463.43 318.144 463.43 319.948C463.43 320.881 462.372 321.026 461.792 321.026H445.512V348.714C445.512 356.179 442.796 361.074 441.531 361.075C440.598 361.075 439.747 359.851 439.747 356.201V318.328C424.886 326.142 412.127 331.624 396.408 335.898C391.949 337.101 392.757 338.138 391.347 338.304C388.071 338.677 382.222 334.239 380.75 332.89C380.231 332.414 380.397 331.937 381.081 332.061C384.855 332.746 388.754 333.181 391.492 332.932C400.554 332.106 410.707 329.174 420.277 325.569V305.66C420.277 303.193 416.525 301.368 416.005 301.056L415.983 301.035C415.631 300.828 415.279 300.455 415.444 300.185C415.589 299.999 415.921 299.978 416.668 300.143C416.668 300.143 424.03 301.782 424.777 301.948C425.897 302.176 426.374 302.425 426.374 303.089C426.374 303.524 426.021 303.711 426.021 305.141V323.3C430.94 321.271 435.599 319.136 439.747 317.105V285.501L439.767 285.459C439.767 282.016 438.42 280.668 437.528 279.942C436.45 279.071 430.788 275.566 430.373 275.255C429.917 274.923 429.481 274.529 429.751 274.156ZM397.917 303.108C396.963 302.465 397.46 301.865 398.393 302.259C405.859 305.411 407.643 309.994 407.643 312.794V323.226C407.656 323.336 407.664 323.447 407.664 323.56C407.664 325.152 406.373 326.443 404.781 326.443C403.189 326.443 401.898 325.152 401.898 323.56V312.794C401.898 310.098 401.857 305.825 397.917 303.108ZM425.858 291.701C426.356 290.768 427 290.83 427.456 290.955C429.136 291.391 434.818 293.63 434.818 295.434C434.818 296.368 433.781 296.513 433.179 296.513L433.2 296.533H403.729C398.918 296.533 398.918 298.835 397.528 299.126C395.495 299.54 389.047 295.518 387.428 294.19C386.889 293.755 387.097 293.34 387.761 293.402C388.282 293.464 394.853 293.733 396.636 293.733H421.006C424.51 293.733 425.36 292.634 425.858 291.701Z" fill="black"/>
<path fill-rule="evenodd" clip-rule="evenodd" d="M491.684 328.869C491.871 328.579 492.224 328.641 492.804 328.869C493.02 328.954 494.782 329.626 496.972 330.466C496.972 330.465 496.972 330.464 496.972 330.464C500.643 331.687 504.584 331.874 508.109 331.874H528.621C532.292 331.874 533.059 330.775 533.556 329.842C534.054 328.908 534.698 328.971 535.154 329.096C536.506 329.446 538.233 330.966 538.856 332.486C539.008 332.8 539.093 333.161 539.093 333.573L539.094 333.575C539.094 333.675 539.079 333.764 539.056 333.846C538.782 336.453 534.843 341.913 534.843 351.681C534.843 352.54 534.963 353.144 535.12 353.566C535.185 353.529 535.25 353.489 535.316 353.443C536.104 352.883 536.789 352.8 537.204 352.925C538.531 353.36 539.754 354.75 539.755 355.973C539.755 356.616 539.05 356.72 538.656 356.721H506.262C505.373 359.417 504.199 360.973 503.485 360.973C502.552 360.973 501.701 359.75 501.701 356.099V340.172C501.701 336.729 500.353 335.381 499.462 334.655C498.383 333.784 492.721 330.279 492.306 329.968C491.85 329.636 491.415 329.242 491.684 328.869ZM507.405 334.653C507.784 335.072 507.467 335.528 507.467 336.46V348.613C507.467 350.574 507.278 352.357 506.978 353.921H531.823C531.791 353.7 531.773 353.459 531.773 353.195V335.484C531.773 335.355 531.79 335.049 531.833 334.653H507.405ZM521.755 274.156C521.941 273.866 522.294 273.928 522.875 274.156C523.46 274.386 536.023 279.195 537.06 279.61C538.802 280.295 539.3 280.792 538.221 282.659C537.91 283.219 537.516 283.8 537.516 285.169V306.573H541.622C545.127 306.573 545.978 305.474 546.475 304.541C546.973 303.608 547.616 303.67 548.072 303.795C549.752 304.23 555.434 306.47 555.434 308.274C555.434 309.207 554.376 309.352 553.796 309.352H537.516V315.448C537.516 322.914 534.8 327.807 533.535 327.808C532.602 327.808 531.751 326.585 531.751 322.935V308.857C516.129 317.163 500.393 324.143 492.952 325.28C483.516 326.732 484.054 320.717 484.054 317.088V309.642C484.054 307.324 482.383 306.499 481.346 306.024C479.216 305.126 477.104 303.978 476.272 303.296C475.733 302.86 475.941 302.445 476.604 302.508C477.126 302.57 483.697 302.84 485.48 302.84H509.427C509.393 302.614 509.375 302.366 509.375 302.095V292.575C509.375 292.448 509.391 292.151 509.432 291.765H497.175C492.363 291.766 492.363 294.068 490.973 294.358C488.941 294.773 482.492 290.75 480.874 289.423C480.335 288.987 480.542 288.572 481.206 288.635C481.727 288.697 488.299 288.966 490.082 288.966H506.196C509.867 288.966 510.635 287.867 511.133 286.933C511.63 286 512.273 286.063 512.729 286.187C514.011 286.52 515.63 287.902 516.326 289.341C516.559 289.706 516.696 290.146 516.696 290.668L516.675 290.688C516.674 292.265 512.901 297.096 512.444 300.435C512.301 301.482 512.347 302.166 512.478 302.612C512.63 302.548 512.77 302.467 512.919 302.362C513.727 301.802 514.411 301.7 514.805 301.845C516.133 302.28 517.357 303.669 517.357 304.892C517.357 305.535 516.652 305.639 516.258 305.639H492.573C491.291 305.639 490.352 305.738 489.635 305.886C489.738 306.607 489.8 307.429 489.8 308.129V314.288C489.8 319.68 490.775 320.179 494.591 319.888C503.027 319.244 515.656 314.718 531.751 307.075V285.501L531.771 285.459C531.771 282.016 530.424 280.668 529.532 279.942C528.454 279.071 522.791 275.566 522.377 275.255C521.921 274.923 521.485 274.529 521.755 274.156Z" fill="black"/>
<path fill-rule="evenodd" clip-rule="evenodd" d="M637.603 319.453C638.101 318.52 638.744 318.582 639.2 318.707C640.88 319.143 646.562 321.382 646.562 323.186C646.562 324.12 645.525 324.264 644.924 324.264L644.944 324.285H608.82V348.675C608.82 356.161 606.082 361.035 604.838 361.035C603.884 361.035 603.054 359.811 603.054 356.161V324.285H582.042C577.23 324.285 577.23 326.587 575.841 326.878C573.808 327.292 567.359 323.27 565.741 321.942C565.202 321.507 565.409 321.092 566.073 321.154C566.595 321.216 573.166 321.485 574.949 321.485H632.75C636.255 321.485 637.106 320.386 637.603 319.453ZM610.415 277.082C610.601 276.791 610.954 276.854 611.535 277.082C612.12 277.312 624.684 282.121 625.72 282.536C627.463 283.22 627.96 283.718 626.882 285.585C626.57 286.145 626.177 286.726 626.177 288.095V302.404C626.177 309.87 623.46 314.765 622.195 314.765C621.435 314.765 620.73 313.954 620.494 311.684C620.363 311.693 620.224 311.699 620.074 311.699H593.881C593.152 311.699 592.547 311.74 591.977 311.813C591.07 315.022 589.729 316.903 588.945 316.904C588.012 316.904 587.161 315.68 587.161 312.03V290.544L587.181 290.523C587.181 287.081 585.834 285.733 584.942 285.007C583.864 284.136 578.202 280.63 577.787 280.319C577.331 279.987 576.895 279.594 577.165 279.221C577.351 278.93 577.704 278.992 578.285 279.221C578.87 279.45 591.434 284.26 592.47 284.675C594.213 285.359 594.71 285.857 593.632 287.723C593.32 288.283 592.927 288.864 592.927 290.233V291.697C593.234 291.689 593.566 291.683 593.922 291.683H619.908C620.085 291.683 620.253 291.693 620.411 291.709V288.405L620.431 288.385C620.431 284.942 619.084 283.594 618.192 282.868C617.114 281.997 611.452 278.492 611.037 278.18C610.581 277.849 610.145 277.455 610.415 277.082ZM620.074 294.463H593.881C593.539 294.463 593.223 294.472 592.927 294.489V304.543C592.927 306.134 592.801 307.609 592.594 308.944C592.99 308.93 593.434 308.92 593.922 308.92H619.908C620.085 308.92 620.253 308.929 620.411 308.945V294.454C620.305 294.459 620.192 294.463 620.074 294.463Z" fill="black"/>
<path fill-rule="evenodd" clip-rule="evenodd" d="M710.22 274.156C710.406 273.866 710.759 273.928 711.34 274.156C711.925 274.386 724.488 279.195 725.525 279.61C727.267 280.295 727.765 280.792 726.686 282.659C726.375 283.219 725.981 283.8 725.981 285.169V348.714C725.981 356.179 723.265 361.074 722 361.075C721.067 361.075 720.216 359.851 720.216 356.201V315.85C703.864 324.689 686.932 332.304 679.134 333.492C669.697 334.944 670.236 328.93 670.236 325.301V301.097C670.236 297.655 668.889 296.307 667.997 295.581C666.918 294.71 661.256 291.204 660.842 290.893C660.385 290.562 659.95 290.168 660.22 289.795C660.406 289.504 660.759 289.567 661.34 289.795C661.925 290.024 674.488 294.834 675.525 295.249C677.267 295.933 677.765 296.431 676.686 298.298C676.375 298.858 675.981 299.439 675.981 300.807V322.521C675.981 327.914 676.956 328.411 680.772 328.121C689.606 327.446 703.032 322.518 720.216 314.208V285.501L720.236 285.459C720.236 282.016 718.889 280.668 717.997 279.942C716.918 279.071 711.256 275.566 710.842 275.255C710.385 274.923 709.95 274.529 710.22 274.156Z" fill="black"/>
<path fill-rule="evenodd" clip-rule="evenodd" d="M506.821 562.938C506.945 562.73 507.277 562.709 508.045 562.896C508.072 562.902 515.43 564.535 516.154 564.7C517.274 564.949 517.751 565.178 517.751 565.841C517.751 566.256 517.398 566.463 517.398 567.894V583.366H540.75C544.255 583.366 545.106 582.268 545.603 581.334C546.101 580.401 546.744 580.464 547.2 580.588C548.88 581.024 554.562 583.263 554.562 585.068C554.562 586.001 553.525 586.146 552.924 586.146L552.944 586.166H490.042C485.23 586.166 485.23 588.469 483.841 588.759C481.808 589.173 475.359 585.151 473.741 583.824C473.202 583.388 473.409 582.973 474.073 583.035C474.595 583.098 481.166 583.366 482.949 583.366H511.633V568.392C511.633 565.903 507.879 564.098 507.36 563.787C506.987 563.559 506.656 563.207 506.821 562.938ZM483.344 527.49C483.552 527.22 483.884 527.261 484.465 527.49C485.046 527.718 497.613 532.53 498.65 532.945C500.392 533.629 500.89 534.127 499.811 535.993C499.48 536.553 499.106 537.134 499.106 538.502V555.198C499.106 556.38 499.521 556.96 500.994 556.96H525.757C529.261 556.96 530.111 555.861 530.609 554.928C531.107 553.995 531.751 554.057 532.207 554.182C533.887 554.618 539.569 556.857 539.569 558.661C539.569 559.595 538.511 559.74 537.93 559.74H500.102C494.026 559.74 493.341 557.624 493.341 554.119L493.361 554.099V538.793C493.361 535.351 492.014 534.003 491.122 533.277C490.023 532.406 484.381 528.9 483.967 528.589C483.51 528.257 483.075 527.863 483.344 527.49Z" fill="black"/>
<path fill-rule="evenodd" clip-rule="evenodd" d="M624.189 569.922C624.687 568.988 625.331 569.051 625.787 569.176C627.468 569.611 633.149 571.851 633.149 573.655C633.149 574.588 632.112 574.733 631.511 574.733L631.531 574.754H610.765C612.475 575.134 614.099 575.494 614.42 575.567C615.54 575.816 616.017 576.044 616.017 576.708C616.016 577.122 615.706 577.247 615.643 578.678C615.643 578.824 615.746 578.881 615.901 578.929C623.666 579.908 629.521 584.21 629.521 589.358C629.521 595.227 621.931 599.997 612.536 599.997C603.141 599.997 595.551 595.227 595.551 589.358C595.551 584.164 601.513 579.833 609.382 578.905C609.795 578.822 609.836 578.657 609.732 578.367C609.072 576.536 606.574 575.185 605.802 574.754H604.155C599.344 574.754 599.344 577.056 597.954 577.346C595.921 577.761 589.472 573.738 587.854 572.411C587.315 571.975 587.523 571.561 588.186 571.623C588.708 571.685 595.279 571.954 597.062 571.954H619.337C622.842 571.954 623.692 570.855 624.189 569.922ZM612.536 581.062C606.294 581.062 601.233 584.775 601.233 589.358C601.234 593.941 606.294 597.654 612.536 597.654C618.778 597.654 623.839 593.941 623.839 589.358C623.839 584.775 618.779 581.062 612.536 581.062ZM598.657 561.4C598.284 560.799 598.615 560.488 599.237 560.778C599.714 561.006 605.75 563.453 607.513 564.055C609.275 564.656 610.665 565.237 612.531 565.237H615.144C616.057 565.237 616.534 565.195 617.156 564.76C617.944 564.2 618.629 564.117 619.044 564.241C620.371 564.677 621.595 566.066 621.595 567.29C621.595 567.933 620.889 568.037 620.495 568.037V568.015H613.009C606.662 568.015 607.969 569.592 606.559 569.405C604.485 569.135 599.757 563.184 598.657 561.4ZM613.755 514.156C613.941 513.866 614.294 513.928 614.875 514.156C615.46 514.386 628.024 519.195 629.06 519.61C630.803 520.295 631.3 520.792 630.222 522.659C629.911 523.219 629.517 523.8 629.517 525.169V546.573H633.645C637.15 546.573 638.001 545.474 638.499 544.541C638.997 543.608 639.639 543.67 640.096 543.795C641.776 544.23 647.458 546.47 647.458 548.274C647.458 549.207 646.4 549.352 645.819 549.352H629.517V550.761C629.517 558.226 626.8 563.121 625.535 563.122C624.602 563.122 623.751 561.898 623.751 558.248V547.923C608.129 556.229 592.393 563.208 584.952 564.346C575.516 565.797 576.055 559.783 576.055 556.153V549.164C576.054 546.9 574.46 546.062 573.42 545.581C571.265 544.678 569.114 543.512 568.272 542.821C567.733 542.386 567.94 541.971 568.603 542.033C569.122 542.095 575.697 542.365 577.48 542.365H601.428C601.394 542.139 601.375 541.89 601.375 541.618V532.575C601.375 532.448 601.391 532.152 601.433 531.766H589.175C584.363 531.766 584.363 534.068 582.974 534.358C580.941 534.773 574.492 530.75 572.874 529.423C572.335 528.987 572.542 528.572 573.206 528.635C573.728 528.697 580.299 528.966 582.082 528.966H598.196C601.867 528.966 602.635 527.867 603.133 526.933C603.63 526 604.273 526.063 604.729 526.187C606.011 526.52 607.63 527.902 608.326 529.341C608.559 529.706 608.696 530.146 608.696 530.668L608.675 530.688C608.675 532.265 604.901 536.641 604.444 539.959C604.3 541.007 604.348 541.691 604.481 542.137C604.632 542.073 604.772 541.993 604.919 541.888C605.728 541.329 606.412 541.225 606.806 541.37C608.133 541.805 609.356 543.195 609.356 544.419C609.356 545.061 608.652 545.165 608.258 545.165H584.573C583.292 545.165 582.352 545.262 581.636 545.41C581.738 546.131 581.8 546.952 581.8 547.65V553.333C581.8 558.725 582.775 559.223 586.591 558.932C595.027 558.288 607.656 553.763 623.751 546.12V525.479L623.771 525.459C623.771 522.016 622.424 520.668 621.532 519.942C620.454 519.071 614.792 515.566 614.377 515.255C613.921 514.923 613.485 514.529 613.755 514.156Z" fill="black"/>
<path fill-rule="evenodd" clip-rule="evenodd" d="M713.427 514.156C713.613 513.866 713.966 513.928 714.547 514.156C715.132 514.386 727.696 519.195 728.732 519.61C730.475 520.295 730.972 520.792 729.894 522.659C729.582 523.219 729.188 523.8 729.188 525.169V588.714C729.188 596.179 726.472 601.074 725.207 601.075C724.274 601.075 723.423 599.851 723.423 596.201V525.501L723.443 525.459C723.443 522.016 722.096 520.668 721.204 519.942C720.126 519.071 714.464 515.566 714.049 515.255C713.593 514.923 713.157 514.529 713.427 514.156ZM698.083 520.025C698.27 519.735 698.622 519.797 699.203 520.025C699.788 520.255 712.352 525.065 713.389 525.479C715.131 526.164 715.628 526.662 714.55 528.528C714.239 529.088 713.845 529.669 713.845 531.038V582.887C713.845 590.352 711.129 595.246 709.863 595.247C708.93 595.247 708.079 594.023 708.079 590.373V554.87H702.21C697.399 554.87 697.398 557.172 696.009 557.463C695.021 557.674 692.988 556.82 690.973 555.743C682.551 569.418 669.589 577.585 661.793 582.223C661.503 582.41 660.943 582.535 660.756 582.306C660.611 582.14 660.549 581.56 660.942 581.291C689.779 561.636 691.028 540.48 690.995 536.512H678.866C674.055 536.512 674.055 538.814 672.665 539.104C670.632 539.519 664.183 535.496 662.565 534.169C662.026 533.733 662.234 533.318 662.897 533.381C663.419 533.443 669.99 533.713 671.773 533.713H687.494C691.165 533.713 691.247 532.613 691.745 531.68C692.243 530.746 692.887 530.809 693.343 530.933C695.023 531.369 698.61 533.609 698.61 535.413C698.61 535.6 698.566 535.754 698.495 535.883C698.497 535.886 698.5 535.889 698.502 535.892C698.398 536.079 698.336 536.224 698.273 536.597C697.26 542.341 695.423 547.47 693.063 552.045C693.933 552.072 694.674 552.091 695.117 552.091C696.016 552.091 694.823 552.091 708.079 552.091V531.37L708.1 531.328C708.1 527.885 706.752 526.537 705.86 525.811C704.782 524.94 699.12 521.435 698.705 521.124C698.249 520.792 697.814 520.398 698.083 520.025Z" fill="black"/>
<path fill-rule="evenodd" clip-rule="evenodd" d="M526.235 154.156C526.422 153.866 526.775 153.928 527.355 154.156C527.94 154.386 540.504 159.195 541.541 159.61C543.283 160.295 543.78 160.792 542.702 162.659C542.391 163.219 541.997 163.8 541.997 165.169V228.714C541.997 236.179 539.281 241.074 538.015 241.075C537.082 241.075 536.231 239.851 536.231 236.201V202.065C519.369 211.186 505.686 217.337 488.388 222.037C483.93 223.24 484.738 224.276 483.328 224.442C480.051 224.816 474.203 220.377 472.73 219.029C472.212 218.552 472.377 218.076 473.061 218.2C476.836 218.884 480.735 219.32 483.472 219.071C489.662 218.505 496.357 216.957 503.027 214.886V201.108C503.027 198.619 499.273 196.815 498.755 196.504C498.381 196.276 498.05 195.923 498.216 195.653C498.34 195.446 498.672 195.426 499.439 195.612C499.46 195.617 506.824 197.251 507.549 197.417C508.668 197.666 509.145 197.894 509.145 198.557C509.145 198.972 508.793 199.18 508.793 200.61V212.969C519.031 209.35 528.836 204.788 536.231 200.977V165.501L536.252 165.459C536.252 162.016 534.904 160.668 534.012 159.942C532.934 159.071 527.272 155.566 526.857 155.255C526.401 154.923 525.966 154.529 526.235 154.156ZM520.641 171.721C521.139 170.788 521.782 170.85 522.238 170.974C523.918 171.41 526.178 173.65 526.178 175.454C526.178 175.634 526.139 175.784 526.072 175.91C525.927 176.242 525.907 176.512 525.844 177.052C525.347 181.552 521.863 193.332 512.261 201.897C511.991 202.125 511.535 202.27 511.369 202.063C511.224 201.897 511.223 201.628 511.513 201.255C519.836 190.566 519.874 180.502 519.474 176.532H514.834C511.868 176.532 511.474 177.902 510.334 178.13C509.264 178.357 506.703 177.064 504.662 175.83C504.64 175.883 504.615 175.932 504.585 175.977C504.464 176.28 504.442 176.549 504.384 177.052C503.886 181.552 500.402 193.332 490.8 201.897C490.53 202.125 490.074 202.27 489.908 202.063C489.763 201.897 489.762 201.628 490.052 201.255C498.375 190.566 498.413 180.502 498.013 176.532H493.388C490.423 176.532 490.029 177.901 488.888 178.13C487.229 178.482 481.983 175.185 480.655 174.106C480.22 173.754 480.385 173.4 480.925 173.463C481.341 173.504 486.482 173.732 488.162 173.732H494.26V173.753C497.744 173.753 498.698 172.654 499.196 171.721C499.694 170.788 500.337 170.85 500.793 170.974C501.9 171.262 503.257 172.335 504.055 173.549C505.826 173.629 508.487 173.732 509.607 173.732H515.705V173.753C519.189 173.753 520.144 172.654 520.641 171.721Z" fill="black"/>
<path fill-rule="evenodd" clip-rule="evenodd" d="M598.821 200.219C598.946 200.012 599.278 199.992 600.045 200.178C600.072 200.184 607.429 201.818 608.154 201.983C609.274 202.232 609.751 202.46 609.751 203.124C609.751 203.538 609.398 203.746 609.398 205.177V223.387H632.75C636.255 223.387 637.106 222.288 637.603 221.355C638.101 220.422 638.744 220.485 639.2 220.609C640.88 221.045 646.562 223.284 646.562 225.089C646.562 226.022 645.525 226.167 644.924 226.167L644.944 226.187H582.042C577.23 226.187 577.23 228.49 575.841 228.78C573.808 229.194 567.359 225.172 565.741 223.844C565.202 223.409 565.409 222.994 566.073 223.056C566.595 223.119 573.166 223.387 574.949 223.387H603.633V205.675C603.633 203.186 599.879 201.381 599.36 201.07C598.987 200.842 598.655 200.489 598.821 200.219ZM598.346 169.049C598.844 168.116 599.487 168.178 599.943 168.302C601.623 168.738 605.211 170.978 605.211 172.782C605.211 172.974 605.165 173.131 605.091 173.261H605.105C605.002 173.448 604.939 173.593 604.877 173.967C602.927 184.896 597.763 201.591 583.868 212.749C583.598 212.956 583.018 213.06 582.831 212.832C582.686 212.666 582.685 212.147 583.017 211.815C598.893 195.291 598.005 177.493 597.635 173.881H591.108C586.297 173.881 586.296 176.183 584.907 176.473C582.874 176.888 576.425 172.865 574.807 171.538C574.268 171.102 574.476 170.688 575.139 170.75C575.661 170.812 582.232 171.081 584.015 171.081H594.094C597.765 171.081 597.849 169.982 598.346 169.049ZM629.413 169.049C629.911 168.116 630.553 168.178 631.01 168.302C632.689 168.738 636.277 170.978 636.277 172.782C636.277 172.974 636.232 173.131 636.157 173.261H636.171C636.067 173.448 636.005 173.594 635.943 173.967C633.994 184.896 628.829 201.591 614.934 212.749C614.665 212.956 614.084 213.06 613.897 212.832C613.752 212.666 613.752 212.147 614.084 211.815C629.96 195.291 629.071 177.493 628.701 173.881H622.175C617.363 173.881 617.363 176.183 615.973 176.473C613.941 176.888 607.492 172.865 605.874 171.538C605.335 171.102 605.542 170.688 606.206 170.75C606.727 170.812 613.299 171.081 615.082 171.081H625.161C628.832 171.081 628.915 169.982 629.413 169.049Z" fill="black"/>
<path fill-rule="evenodd" clip-rule="evenodd" d="M710.216 154.156C710.402 153.866 710.755 153.928 711.336 154.156C711.921 154.386 724.484 159.195 725.521 159.61C727.263 160.295 727.761 160.792 726.682 162.659C726.371 163.219 725.977 163.8 725.977 165.169V228.714C725.977 236.179 723.261 241.074 721.996 241.075C721.063 241.075 720.212 239.851 720.212 236.201V199.155C703.201 208.494 685.081 216.752 676.932 217.993C667.496 219.445 668.035 213.43 668.035 209.801V197.461C668.035 195.125 666.338 194.305 665.303 193.832C663.181 192.935 661.082 191.792 660.253 191.112C659.713 190.677 659.921 190.262 660.585 190.324C661.106 190.386 667.677 190.656 669.461 190.656H693.408C693.374 190.43 693.355 190.181 693.355 189.909V177.361C693.355 177.232 693.372 176.928 693.415 176.533H681.155C676.344 176.533 676.343 178.835 674.954 179.126C672.921 179.54 666.472 175.518 664.854 174.19C664.315 173.755 664.523 173.34 665.186 173.402C665.708 173.464 672.279 173.733 674.062 173.733H690.177C693.847 173.733 694.615 172.634 695.113 171.701C695.611 170.768 696.253 170.83 696.71 170.955C698.025 171.296 699.695 172.742 700.359 174.22C700.559 174.566 700.676 174.974 700.677 175.453H700.655C700.655 177.029 696.881 184.911 696.425 188.25C696.281 189.298 696.328 189.983 696.46 190.429C696.611 190.365 696.751 190.284 696.899 190.179C697.708 189.619 698.392 189.516 698.786 189.661C700.113 190.096 701.337 191.485 701.338 192.709C701.338 193.352 700.632 193.456 700.238 193.456H676.553C675.272 193.456 674.332 193.554 673.616 193.702C673.718 194.424 673.78 195.247 673.78 195.947V207.001C673.78 212.393 674.755 212.891 678.571 212.6C687.778 211.897 701.973 206.575 720.212 197.618V165.501L720.232 165.459C720.232 162.016 718.885 160.668 717.993 159.942C716.914 159.071 711.252 155.566 710.838 155.255C710.381 154.923 709.946 154.529 710.216 154.156Z" fill="black"/>
<path fill-rule="evenodd" clip-rule="evenodd" d="M545.603 674.951C546.101 674.018 546.744 674.08 547.2 674.205C548.88 674.641 554.562 676.88 554.562 678.684C554.562 679.618 553.525 679.763 552.924 679.763L552.944 679.784H517.358V681.715C517.358 685.807 516.458 688.06 515.417 689.302H524.796C528.467 689.302 529.234 688.203 529.732 687.269C530.23 686.336 530.873 686.399 531.329 686.523C532.649 686.866 534.326 688.322 534.985 689.805C535.179 690.149 535.294 690.552 535.294 691.023H535.272C535.272 692.6 531.498 695.897 531.042 699.236C530.898 700.292 530.946 700.978 531.08 701.424C531.241 701.358 531.388 701.274 531.544 701.163C532.352 700.603 533.036 700.5 533.43 700.645C534.758 701.081 535.981 702.47 535.981 703.693C535.981 704.336 535.277 704.44 534.883 704.44H502.819C501.511 704.44 500.558 704.542 499.837 704.695C499.935 705.405 499.995 706.206 499.995 706.89V712.18C499.995 713.361 500.41 713.942 501.883 713.942L501.903 713.963H524.778C528.283 713.963 529.134 712.864 529.632 711.93C530.129 710.997 530.772 711.059 531.228 711.183C532.908 711.619 538.59 713.859 538.591 715.663C538.591 716.596 537.554 716.742 536.953 716.742H501.011C494.956 716.742 494.25 714.626 494.25 711.121C494.25 710.188 494.25 711.245 494.25 708.404C494.25 706.281 492.847 705.413 491.815 704.917C489.611 704.006 487.379 702.803 486.518 702.096C485.979 701.661 486.187 701.246 486.85 701.308C487.372 701.371 493.943 701.64 495.726 701.64H528.024C527.99 701.415 527.972 701.167 527.972 700.895V692.931C527.972 692.802 527.989 692.498 528.032 692.102H506.421C501.609 692.102 501.609 694.404 500.219 694.694C498.187 695.109 491.738 691.086 490.12 689.759C489.581 689.323 489.788 688.908 490.452 688.971C490.973 689.033 497.545 689.302 499.328 689.302H511.656C511.617 688.865 511.613 688.416 511.613 688.081V679.784H490.042C485.23 679.784 485.23 682.085 483.841 682.376C481.808 682.79 475.359 678.768 473.741 677.44C473.202 677.005 473.409 676.59 474.073 676.652C474.595 676.714 481.166 676.983 482.949 676.983H540.75C544.255 676.983 545.106 675.884 545.603 674.951ZM484.259 640.07C484.445 639.78 484.798 639.842 485.379 640.07C485.603 640.158 487.508 640.886 489.827 641.774C493.418 642.916 497.247 643.096 500.683 643.096H524.803C528.474 643.096 529.242 641.998 529.74 641.064C530.238 640.131 530.88 640.194 531.337 640.318C532.621 640.651 534.243 642.038 534.936 643.479C535.151 643.835 535.278 644.259 535.278 644.758L535.275 644.76C535.275 644.772 535.277 644.785 535.277 644.798C535.277 644.907 535.261 645.004 535.234 645.093C534.919 647.681 531.026 652.696 531.026 662.407C531.026 663.285 531.152 663.895 531.314 664.319C531.383 664.279 531.453 664.237 531.523 664.187C532.311 663.628 532.995 663.545 533.41 663.669C534.737 664.104 535.96 665.494 535.961 666.718C535.961 667.36 535.256 667.465 534.862 667.465H498.837C497.948 670.161 496.773 671.718 496.059 671.719C495.126 671.719 494.275 670.495 494.275 666.845V651.373C494.275 647.93 492.928 646.582 492.036 645.856C490.957 644.985 485.295 641.48 484.881 641.169C484.424 640.837 483.989 640.443 484.259 640.07ZM499.997 645.876C500.347 646.289 500.041 646.745 500.041 647.661V659.357C500.041 661.318 499.852 663.101 499.552 664.665H528.009C527.975 664.44 527.957 664.192 527.957 663.921V646.666C527.957 646.541 527.973 646.252 528.012 645.876H499.997Z" fill="black"/>
<path fill-rule="evenodd" clip-rule="evenodd" d="M713.431 634.156C713.617 633.866 713.97 633.928 714.551 634.156C715.136 634.386 727.699 639.195 728.736 639.61C730.478 640.295 730.976 640.792 729.897 642.659C729.586 643.219 729.192 643.8 729.192 645.169V708.714C729.192 716.179 726.476 721.074 725.211 721.075C724.278 721.075 723.427 719.851 723.427 716.201V645.501L723.447 645.459C723.447 642.016 722.1 640.668 721.208 639.942C720.129 639.071 714.467 635.566 714.053 635.255C713.596 634.923 713.161 634.529 713.431 634.156ZM698.087 640.045C698.273 639.754 698.626 639.817 699.207 640.045C699.791 640.274 712.356 645.084 713.392 645.499C715.135 646.183 715.632 646.681 714.554 648.548C714.242 649.108 713.848 649.689 713.848 651.057V702.906C713.848 710.371 711.132 715.265 709.867 715.266C708.934 715.266 708.083 714.043 708.083 710.392V672.546H704.104C699.293 672.546 699.293 674.848 697.903 675.138C695.87 675.553 689.421 671.529 687.804 670.202C687.264 669.766 687.472 669.352 688.136 669.414C688.657 669.476 695.228 669.746 697.012 669.746C697.865 669.746 696.832 669.746 708.083 669.746V651.389L708.103 651.347C708.103 647.905 706.756 646.557 705.864 645.831C704.786 644.96 699.124 641.454 698.709 641.143C698.253 640.812 697.817 640.418 698.087 640.045ZM660.22 649.816C660.406 649.526 660.759 649.588 661.34 649.816C661.925 650.046 674.488 654.856 675.525 655.27C677.267 655.955 677.765 656.453 676.686 658.319C676.375 658.879 675.981 659.46 675.981 660.829V682.087C675.981 687.479 676.956 688.578 680.772 688.288C685.169 687.956 691.515 686.401 698.09 684.078C699.915 683.435 700.744 684.865 698.691 685.882C690.644 689.801 683.364 692.457 679.154 693.099C669.718 694.551 670.258 688.536 670.258 684.907V661.161L670.236 661.119C670.236 657.676 668.889 656.328 667.997 655.602C666.918 654.731 661.256 651.226 660.842 650.915C660.385 650.583 659.95 650.189 660.22 649.816Z" fill="black"/>
<path fill-rule="evenodd" clip-rule="evenodd" d="M637.603 701.353C638.101 700.421 638.744 700.483 639.2 700.607C640.88 701.043 646.562 703.283 646.562 705.087C646.562 706.02 645.525 706.165 644.924 706.165L644.944 706.185H582.042C577.23 706.186 577.23 708.488 575.841 708.778C573.808 709.193 567.359 705.17 565.741 703.843C565.202 703.407 565.409 702.992 566.073 703.055C566.595 703.117 573.166 703.386 574.949 703.386H632.75C636.255 703.386 637.106 702.287 637.603 701.353ZM575.325 647.557C575.532 647.287 575.885 647.349 576.445 647.557C576.654 647.634 578.424 648.311 580.626 649.153C580.617 649.125 580.613 649.11 580.613 649.11C584.284 650.334 588.224 650.52 591.75 650.52H615.434C618.939 650.52 619.79 649.421 620.288 648.488C620.786 647.555 621.428 647.618 621.885 647.742C623.565 648.178 629.247 650.417 629.247 652.222C629.247 653.155 628.21 653.3 627.608 653.3H591.015C591.438 653.721 591.107 654.179 591.107 655.147V675.223C591.107 676.405 591.522 676.985 592.995 676.985H617.758C621.263 676.985 622.113 675.886 622.611 674.953C623.109 674.02 623.752 674.083 624.208 674.207C625.888 674.643 631.57 676.882 631.57 678.686C631.57 679.62 630.512 679.765 629.931 679.765H592.103C586.027 679.765 585.342 677.649 585.342 674.144V658.859C585.342 655.417 583.994 654.069 583.102 653.343C582.003 652.472 576.363 648.968 575.947 648.656C575.491 648.324 575.055 647.93 575.325 647.557Z" fill="black"/>
<path fill-rule="evenodd" clip-rule="evenodd" d="M429.751 394.156C429.937 393.866 430.29 393.928 430.871 394.156C431.456 394.386 444.02 399.195 445.056 399.61C446.799 400.295 447.296 400.792 446.218 402.659C445.906 403.219 445.512 403.8 445.512 405.169V438.268H449.618C453.123 438.268 453.974 437.169 454.471 436.236C454.969 435.303 455.612 435.366 456.068 435.49C457.748 435.926 463.43 438.165 463.43 439.97C463.43 440.903 462.372 441.048 461.792 441.048H445.512V468.714C445.512 476.179 442.796 481.074 441.531 481.075C440.598 481.075 439.747 479.851 439.747 476.201V438.328C424.886 446.142 412.127 451.624 396.408 455.898C391.949 457.101 392.757 458.138 391.347 458.304C388.071 458.677 382.222 454.239 380.75 452.89C380.231 452.414 380.397 451.937 381.081 452.061C384.855 452.746 388.754 453.181 391.492 452.932C400.554 452.106 410.707 449.174 420.277 445.569V425.66C420.277 423.193 416.525 421.368 416.005 421.056L415.983 421.035C415.631 420.828 415.279 420.455 415.444 420.185C415.589 419.999 415.921 419.978 416.668 420.143C416.668 420.143 424.03 421.782 424.777 421.948C425.897 422.176 426.374 422.425 426.374 423.089C426.374 423.524 426.021 423.711 426.021 425.141V443.3C430.94 441.271 435.599 439.136 439.747 437.105V405.501L439.767 405.459C439.767 402.016 438.42 400.668 437.528 399.942C436.45 399.071 430.788 395.566 430.373 395.255C429.917 394.923 429.481 394.529 429.751 394.156ZM404.824 426.697C408.489 426.697 411.461 429.669 411.461 433.334C411.461 436.999 408.489 439.97 404.824 439.971C401.159 439.971 398.187 436.999 398.187 433.334C398.187 429.668 401.159 426.697 404.824 426.697ZM425.858 411.701C426.356 410.768 427 410.83 427.456 410.955C429.136 411.391 434.818 413.63 434.818 415.434C434.818 416.368 433.781 416.513 433.179 416.513L433.2 416.533H403.729C398.918 416.533 398.918 418.835 397.528 419.126C395.495 419.54 389.047 415.518 387.428 414.19C386.889 413.755 387.097 413.34 387.761 413.402C388.282 413.464 394.853 413.733 396.636 413.733H421.006C424.51 413.733 425.36 412.634 425.858 411.701Z" fill="black"/>
<path fill-rule="evenodd" clip-rule="evenodd" d="M613.755 394.156C613.941 393.866 614.294 393.928 614.875 394.156C615.46 394.386 628.023 399.195 629.06 399.61C630.802 400.295 631.3 400.792 630.221 402.659C629.91 403.219 629.516 403.8 629.516 405.169V438.268H633.645C637.15 438.268 638.001 437.169 638.499 436.236C638.996 435.303 639.639 435.366 640.095 435.49C641.775 435.926 647.458 438.165 647.458 439.97C647.458 440.903 646.4 441.048 645.819 441.048H629.516V468.714C629.516 476.179 626.8 481.074 625.535 481.075C624.602 481.075 623.751 479.851 623.751 476.201V405.501L623.771 405.459C623.771 402.016 622.424 400.668 621.532 399.942C620.454 399.071 614.791 395.566 614.377 395.255C613.921 394.923 613.485 394.529 613.755 394.156ZM585.387 424.889C585.512 424.682 585.844 424.662 586.611 424.848C586.638 424.854 593.996 426.488 594.72 426.653C595.84 426.902 596.317 427.13 596.317 427.794C596.317 428.208 596.006 428.333 595.944 429.763C595.944 429.912 596.049 429.968 596.208 430.016C603.874 431.274 609.627 436.727 609.628 443.245C609.628 450.69 602.099 456.747 592.829 456.747C583.558 456.747 576.051 450.69 576.051 443.245C576.051 436.661 581.921 431.165 589.689 429.98L589.68 429.971C590.095 429.889 590.137 429.743 590.033 429.453C589.307 427.441 586.362 426.01 585.927 425.74C585.553 425.512 585.222 425.159 585.387 424.889ZM592.829 432.088C586.69 432.088 581.713 437.086 581.713 443.245C581.713 449.405 586.69 454.403 592.829 454.403C598.968 454.403 603.945 449.404 603.945 443.245C603.945 437.086 598.968 432.088 592.829 432.088ZM606.353 418.566C606.851 417.633 607.494 417.696 607.95 417.82C609.63 418.256 615.313 420.495 615.313 422.3C615.313 423.233 614.276 423.378 613.675 423.378L613.695 423.398H582.565C577.754 423.398 577.754 425.701 576.364 425.991C574.331 426.405 567.882 422.383 566.264 421.055C565.725 420.62 565.933 420.205 566.596 420.267C567.118 420.33 573.689 420.598 575.472 420.598H601.501C605.005 420.598 605.856 419.499 606.353 418.566ZM578.954 408.053C578.581 407.451 578.912 407.14 579.534 407.43C580.011 407.659 586.046 410.105 587.809 410.707C589.572 411.308 590.962 411.889 592.828 411.889H595.441C596.354 411.889 596.831 411.847 597.453 411.412C598.241 410.852 598.926 410.769 599.341 410.893C600.668 411.329 601.891 412.719 601.891 413.942C601.891 414.585 601.186 414.689 600.792 414.689V414.668H593.305C586.959 414.668 588.265 416.244 586.855 416.057C584.781 415.788 580.053 409.836 578.954 408.053Z" fill="black"/>
<path fill-rule="evenodd" clip-rule="evenodd" d="M713.717 447.268C714.214 446.335 714.857 446.397 715.313 446.522C716.587 446.852 718.195 448.22 718.897 449.649C719.15 450.024 719.302 450.479 719.302 451.024H719.281C719.28 452.6 715.506 455.898 715.05 459.237C714.907 460.283 714.952 460.968 715.084 461.413C715.237 461.349 715.379 461.267 715.528 461.161C716.337 460.602 717.021 460.499 717.415 460.644C718.742 461.079 719.965 462.468 719.966 463.692C719.966 464.335 719.261 464.439 718.867 464.439H686.803C685.509 464.439 684.562 464.538 683.844 464.689C683.942 465.4 684.003 466.203 684.003 466.889V472.178C684.003 473.36 684.418 473.941 685.89 473.941L685.911 473.961H708.786C712.291 473.961 713.142 472.862 713.639 471.929C714.137 470.996 714.78 471.058 715.236 471.182C716.916 471.617 722.598 473.857 722.598 475.661C722.598 476.595 721.562 476.74 720.961 476.741H685.019C678.963 476.741 678.258 474.624 678.258 471.119C678.258 470.187 678.258 471.244 678.258 468.403C678.257 466.38 676.985 465.496 675.971 464.988C673.712 464.069 671.386 462.82 670.503 462.095C669.963 461.659 670.171 461.245 670.835 461.307C671.356 461.369 677.927 461.639 679.711 461.639H712.032C711.998 461.414 711.98 461.166 711.98 460.896V452.931C711.98 452.801 711.997 452.496 712.04 452.1H690.405C685.594 452.1 685.593 454.402 684.204 454.693C682.171 455.107 675.722 451.085 674.104 449.757C673.565 449.322 673.773 448.907 674.436 448.969C674.958 449.031 681.529 449.3 683.312 449.3H708.78C712.451 449.3 713.219 448.201 713.717 447.268ZM729.588 434.951C730.085 434.019 730.728 434.081 731.184 434.205C732.865 434.641 738.547 436.881 738.547 438.685C738.547 439.618 737.509 439.763 736.908 439.763L736.928 439.783H674.026C669.215 439.784 669.214 442.086 667.825 442.376C665.792 442.791 659.343 438.768 657.725 437.441C657.186 437.005 657.394 436.59 658.057 436.653C658.579 436.715 665.15 436.984 666.933 436.984H724.734C728.239 436.984 729.09 435.885 729.588 434.951ZM668.235 400.044C668.443 399.775 668.775 399.816 669.355 400.044C669.937 400.273 682.504 405.085 683.541 405.499C685.283 406.184 685.78 406.682 684.702 408.548C684.37 409.108 683.997 409.689 683.997 411.057V422.92C683.997 424.102 684.412 424.683 685.885 424.683H708.781C712.285 424.683 713.136 423.584 713.634 422.651C714.131 421.718 714.774 421.779 715.23 421.904C716.91 422.339 722.593 424.58 722.593 426.384C722.592 427.317 721.536 427.462 720.955 427.462H685.013C678.937 427.462 678.252 425.347 678.252 421.842V411.348C678.252 407.906 676.904 406.557 676.012 405.831C674.913 404.96 669.272 401.455 668.857 401.144C668.401 400.812 667.965 400.418 668.235 400.044Z" fill="black"/>
<path fill-rule="evenodd" clip-rule="evenodd" d="M515.869 446.335C515.973 446.148 516.284 446.149 516.947 446.294C516.976 446.3 523.499 447.745 524.164 447.89C525.159 448.098 525.575 448.306 525.575 448.907C525.575 449.218 525.367 449.674 525.284 450.524C525.263 450.732 525.326 450.96 525.554 451.002C525.552 451.003 525.548 451.005 525.542 451.011C533.057 452.649 538.618 458.417 538.618 465.291C538.618 473.441 530.799 480.036 521.176 480.036C511.553 480.036 503.735 473.441 503.734 465.291C503.734 457.618 510.645 451.324 519.501 450.612C519.499 450.609 519.498 450.607 519.498 450.607C519.975 450.586 519.913 450.11 519.581 449.633C518.627 448.243 516.657 447.31 516.346 447.102C516.035 446.895 515.724 446.563 515.869 446.335ZM521.176 452.846C514.705 452.847 509.458 458.426 509.458 465.291C509.458 472.155 514.705 477.734 521.176 477.734C527.646 477.734 532.893 472.155 532.893 465.291C532.893 458.426 527.646 452.846 521.176 452.846ZM521.755 394.156C521.941 393.866 522.294 393.928 522.875 394.156C523.46 394.386 536.024 399.195 537.06 399.61C538.803 400.295 539.3 400.792 538.222 402.659C537.911 403.219 537.517 403.8 537.517 405.169V431.446H541.622C545.127 431.446 545.978 430.347 546.476 429.414C546.973 428.481 547.616 428.543 548.072 428.668C549.752 429.103 555.435 431.343 555.435 433.147C555.434 434.08 554.377 434.225 553.796 434.225H537.517V436.443C537.517 443.909 534.8 448.804 533.535 448.805C532.602 448.805 531.751 447.581 531.751 443.93V432.339C516.129 440.645 500.393 447.624 492.952 448.762C483.516 450.213 484.055 444.199 484.055 440.569V431.465C484.054 429.2 482.46 428.362 481.42 427.882C479.265 426.979 477.114 425.813 476.272 425.122C475.733 424.686 475.94 424.272 476.603 424.334C477.122 424.396 483.697 424.666 485.48 424.666H508.432C508.397 424.44 508.379 424.191 508.379 423.919V412.595C508.379 412.467 508.395 412.171 508.436 411.786H497.175C492.363 411.786 492.363 414.087 490.974 414.378C488.941 414.792 482.492 410.77 480.874 409.442C480.335 409.007 480.542 408.592 481.205 408.654C481.724 408.716 488.298 408.986 490.082 408.986H505.201C508.872 408.986 509.639 407.886 510.137 406.953C510.634 406.02 511.277 406.082 511.733 406.207C513.015 406.539 514.634 407.922 515.33 409.36C515.563 409.726 515.7 410.166 515.7 410.687H515.679C515.678 412.264 511.904 418.921 511.448 422.26C511.305 423.308 511.352 423.993 511.483 424.438C511.635 424.374 511.775 424.294 511.923 424.189C512.732 423.629 513.416 423.526 513.81 423.671C515.138 424.106 516.361 425.496 516.361 426.72C516.361 427.362 515.656 427.466 515.262 427.466H492.573C491.292 427.466 490.352 427.563 489.636 427.711C489.738 428.432 489.8 429.252 489.8 429.951V437.769C489.8 443.162 490.775 443.659 494.591 443.369C503.027 442.724 515.656 438.199 531.751 430.556V405.501L531.771 405.459C531.771 402.016 530.424 400.668 529.532 399.942C528.454 399.071 522.792 395.566 522.377 395.255C521.921 394.923 521.485 394.529 521.755 394.156Z" fill="black"/>
<path d="M806.593 700.447C808.629 700.447 810.287 702.105 810.287 704.142C810.287 706.178 808.629 707.836 806.593 707.836C805.64 707.836 804.771 707.473 804.115 706.879C803.567 707.292 803.214 707.952 803.214 708.694C803.214 709.32 803.723 709.844 804.363 709.844H809.134C812.625 709.844 815.447 712.331 815.447 715.808C815.447 719.284 812.625 722.12 809.134 722.12H807.869C804.567 722.12 801.891 719.443 801.891 716.142C801.891 714.19 802.824 712.573 804.269 711.581C803.431 710.903 802.895 709.867 802.895 708.709C802.895 707.887 803.33 707.161 803.987 706.758C803.315 706.088 802.898 705.162 802.898 704.142C802.899 702.105 804.557 700.447 806.593 700.447ZM804.601 711.82C803.268 712.737 802.399 714.229 802.399 716.025C802.399 719.051 804.858 721.509 807.884 721.509H808.8C811.316 721.509 813.353 719.472 813.353 716.956C813.352 714.44 811.316 712.403 808.8 712.403H806.589C805.857 712.403 805.175 712.189 804.601 711.82ZM842.865 700.447C845.192 700.448 847.068 702.324 847.068 704.651V710.12C847.068 710.687 847.52 711.138 848.087 711.138C848.654 711.138 849.104 710.673 849.104 710.12H849.425C849.425 711.385 848.407 712.403 847.142 712.403C846.249 712.403 845.482 711.896 845.105 711.154C844.428 711.928 843.434 712.419 842.327 712.419C840.291 712.419 838.633 710.761 838.633 708.725C838.633 708.114 839.011 707.605 839.534 707.401L844.276 705.568C844.596 705.437 844.829 705.118 844.829 704.754L844.857 704.822V704.651C844.857 703.037 843.548 701.713 841.919 701.713C840.785 701.713 839.81 702.353 839.315 703.283L838.938 703.138C839.549 701.567 841.076 700.447 842.865 700.447ZM828.353 710.658C828.353 711.284 828.862 711.808 829.502 711.808V712.127H826.142V711.125C825.124 711.925 823.842 712.404 822.446 712.404C819.77 712.404 817.603 710.237 817.603 707.561V703.4C817.602 702.775 817.094 702.252 816.454 702.252H815.61L815.566 701.932L819.479 700.434V708.797C819.479 710.426 820.803 711.765 822.446 711.765C824.483 711.765 826.14 710.107 826.141 708.07H826.142V703.415C826.142 702.79 825.633 702.266 824.993 702.266H824.149L824.105 701.945L828.353 700.316V710.658ZM794.256 700.445C797.558 700.445 800.233 703.122 800.233 706.424H790.561V708.067C790.561 710.104 792.22 711.762 794.256 711.762C796.627 711.762 798.649 710.394 799.492 708.445L799.826 708.576C798.968 710.816 796.801 712.401 794.256 712.401C790.954 712.401 788.278 709.725 788.277 706.424C788.277 703.122 790.954 700.445 794.256 700.445ZM781.79 712.127H779.579V712.125H778.43V711.806C779.07 711.806 779.579 711.282 779.579 710.656V703.415C779.579 702.79 779.07 702.266 778.431 702.266H777.587L777.543 701.945L781.79 700.316V712.127ZM854.911 712.127H852.7V703.415C852.7 702.79 852.192 702.266 851.552 702.266H850.708L850.664 701.945L854.911 700.316V712.127ZM781.793 710.656C781.793 711.282 782.302 711.806 782.942 711.806V712.125H781.793V710.656ZM835.06 712.125H831.699V711.806C832.339 711.806 832.849 711.282 832.849 710.656V695.063C832.849 694.438 832.34 693.914 831.7 693.914H830.856L830.812 693.594L835.06 691.965V712.125ZM835.062 710.656C835.062 711.282 835.572 711.806 836.212 711.806V712.125H835.062V710.656ZM852.688 712.125H851.539V711.806C852.179 711.806 852.688 711.282 852.688 710.656V712.125ZM854.914 710.656C854.914 711.282 855.423 711.806 856.063 711.806V712.125H854.914V710.656ZM844.857 705.988C844.769 706.083 844.66 706.158 844.538 706.208L842.008 707.183C841.339 707.43 840.859 708.085 840.858 708.855C840.858 710.121 841.876 711.139 843.142 711.14C843.834 711.14 844.45 710.833 844.868 710.35C844.861 710.274 844.857 710.198 844.857 710.12V705.988ZM806.593 701.044C805.778 701.044 805.109 701.713 805.109 702.527V705.757C805.11 706.571 805.778 707.24 806.593 707.24C807.407 707.24 808.076 706.571 808.076 705.757V702.527C808.076 701.713 807.407 701.044 806.593 701.044ZM794.256 701.085C792.219 701.085 790.561 702.744 790.561 704.78V705.783H797.95V704.78C797.95 702.744 796.292 701.085 794.256 701.085ZM812.513 700.465C813.292 700.465 813.924 701.097 813.924 701.876C813.924 702.655 813.292 703.287 812.513 703.287C811.734 703.287 811.102 702.655 811.102 701.876C811.102 701.097 811.733 700.465 812.513 700.465ZM785.759 700.461C786.538 700.461 787.17 701.093 787.17 701.872C787.17 702.651 786.538 703.283 785.759 703.283C784.98 703.283 784.348 702.651 784.348 701.872C784.348 701.093 784.98 700.461 785.759 700.461ZM858.872 700.461C859.651 700.461 860.283 701.093 860.283 701.872C860.283 702.651 859.651 703.283 858.872 703.283C858.093 703.283 857.461 702.651 857.461 701.872C857.461 701.093 858.093 700.461 858.872 700.461Z" fill="#1A1A1C"/>
</svg>
