<svg width="1920" height="1080" viewBox="0 0 1920 1080" fill="none" xmlns="http://www.w3.org/2000/svg">
<path d="M890.032 384.598C890.331 384.118 890.931 384.238 891.89 384.598C892.849 384.958 913.759 392.994 915.478 393.653C915.577 393.691 915.669 393.73 915.757 393.765V393.753C917.876 394.573 924.673 396.012 924.673 399.151C924.673 402.267 921.724 405.588 916.257 409.168V446.785C916.257 454.041 921.974 447.366 925.033 443.608C927.871 440.129 928.971 435.132 933.588 435.132C939.565 435.132 944.343 439.649 944.343 443.167C944.343 445.286 943.543 446.546 941.445 446.546C929.431 446.546 925.493 445.866 922.374 448.205C919.736 450.184 918.617 451.343 917.677 452.922C917.045 453.971 916.149 456.414 915.774 457.474C914.137 463.722 908.672 468.583 904.673 469.362C894.923 472.018 879.644 474.905 868.103 478.15C862.906 479.609 866.923 479.668 869.342 479.668H894.762C898.012 479.548 899.301 478.805 899.846 476.97C900.246 475.671 901.005 475.211 902.025 475.611C903.324 476.11 915.298 480.707 916.158 481.047C917.017 481.387 917.257 481.847 917.257 482.286C917.257 483.046 916.238 484.246 916.238 486.425V513.811C916.237 522.366 908.302 529.481 903.584 529.482C901.385 529.482 899.726 528.202 899.726 523.045V489.443C899.726 488.954 899.712 487.595 899.334 486.025H859.868C854.73 486.025 855.13 490.522 852.291 489.822C846.595 488.443 839.359 484.066 836.74 480.808C835.64 479.428 836.34 478.709 837.939 478.948C839.718 479.221 841.805 479.397 844.681 479.508C856.4 479.605 891.034 471.112 895.268 469.894C899.111 468.788 899.959 467.583 899.83 464.879C899.804 464.611 899.783 464.328 899.769 464.03C899.768 464.019 899.767 464.008 899.766 463.996H899.767C899.753 463.692 899.746 463.372 899.746 463.036V417.74C896.842 419.027 893.71 420.343 890.366 421.693C883.243 442.424 852.036 467.846 811.577 477.41C811.397 477.46 811.208 477.509 811.012 477.549C810.943 477.563 810.873 477.574 810.801 477.587C810.754 477.596 810.707 477.605 810.66 477.612C805.565 478.503 794.533 477.523 796.72 468.794C799.159 459.059 825.405 442.528 855.969 433.053C858.989 432.118 861.885 431.194 864.664 430.286C866.898 425.616 868.222 421.029 868.497 416.744C868.44 416.209 867.965 415.882 867.422 415.882L867.421 415.881H841.657C836.499 415.881 836.899 420.378 834.08 419.679C828.384 418.3 821.167 413.922 818.529 410.664C817.409 409.285 818.129 408.565 819.728 408.805C823.386 409.365 828.343 409.525 838.778 409.525H867.882C871.9 409.525 872.42 406.486 872.64 405.347C872.9 404.028 873.82 403.968 874.839 404.348C876.141 404.848 890.851 410.684 891.71 411.024C892.57 411.363 892.81 411.823 892.81 412.263C892.81 413.022 892.09 412.903 891.75 415.781C891.556 417.447 891.176 419.161 890.623 420.911C893.96 419.559 896.995 418.254 899.746 417V398.211C899.746 394.473 899.066 392.974 897.287 391.494C895.508 390.015 891.75 386.976 891.071 386.437C890.391 385.897 889.672 385.177 890.032 384.598ZM864.035 431.557C861.522 432.449 858.946 433.354 856.309 434.272C835.14 441.648 812.772 451.723 802.897 463.317C793.586 474.274 805.379 475.54 810.835 473.889C835.742 465.555 855.533 448.165 864.035 431.557ZM922.754 400.01C922.22 397.167 916.788 396.801 916.293 400.578C916.272 401.01 916.257 401.485 916.257 402.009V407.985C921.23 404.479 923.087 401.77 922.754 400.01Z" fill="#111111"/>
<path d="M895.041 548.598C895.341 548.119 895.941 548.239 896.9 548.598C897.86 548.958 918.772 556.995 920.491 557.655C920.594 557.694 920.689 557.735 920.78 557.771C920.784 557.766 920.787 557.76 920.791 557.755C931.047 561.973 944.541 569.01 944.122 579.246C943.451 595.683 932.138 608.972 921.27 618.325V677.828C921.27 686.384 913.334 693.501 908.616 693.502C906.417 693.502 904.758 692.222 904.758 687.064V630.526C890.18 639.765 854.212 655.597 833.166 661.114C830.127 661.914 825.648 665.073 823.789 667.752C822.729 669.291 822.429 669.391 820.69 669.131C815.092 668.291 805.756 662.413 802.397 656.555C800.098 652.517 801.858 652.058 804.896 652.437C808.497 652.894 811.968 653.108 815.692 653.219V653.218C833.585 653.218 851.299 635.825 858.116 630.707C859.935 629.347 857.456 628.767 855.277 628.767C855.277 628.767 855.279 628.76 855.284 628.746C855.282 628.746 855.279 628.747 855.277 628.747C836.944 628.747 822.09 616.571 822.09 601.537C822.09 588.621 833.053 577.815 847.766 575.026C848.625 574.777 848.371 573.865 848.04 572.969C847.32 570.989 844.861 569.849 843.202 569.17C842.382 568.83 841.822 568.25 842.142 567.671C842.402 567.211 843.202 567.35 844.441 567.65C844.441 567.65 862.814 571.629 864.034 571.909C865.133 572.169 865.493 572.369 865.493 572.969C865.493 573.448 865.193 573.608 864.773 574.628C864.593 575.067 864.593 575.347 864.913 575.487V575.493C878.544 578.876 888.464 589.251 888.464 601.537C888.464 612.86 880.037 622.559 868.046 626.659C868.049 626.664 868.051 626.667 868.052 626.668C864.173 628.207 861.674 629.547 859.755 631.047C846.7 641.203 837.344 647.78 832.286 651.558C830.524 652.876 832.019 652.935 833.186 652.834C833.521 652.793 833.858 652.749 834.198 652.704C834.226 652.699 834.243 652.698 834.245 652.698H834.244C854.985 649.923 886.19 638.835 904.758 628.524V562.213C904.758 558.475 904.078 556.975 902.299 555.496C900.519 554.017 896.761 550.977 896.081 550.437C895.401 549.898 894.681 549.178 895.041 548.598ZM855.277 580.685C846.161 580.685 838.783 590.022 838.783 601.537C838.783 613.052 846.161 622.388 855.277 622.388C864.393 622.388 871.77 613.052 871.77 601.537C871.77 590.022 864.393 580.686 855.277 580.685ZM941.983 579.666C942.303 566.991 921.211 561.494 921.291 567.351C921.291 567.351 921.284 567.333 921.27 567.299V616.816C930.946 608.312 941.593 595.424 941.983 579.666Z" fill="#111111"/>
<path d="M1070.05 548.598C1070.35 548.118 1070.95 548.238 1071.91 548.598C1072.87 548.959 1093.77 556.993 1095.49 557.654C1095.58 557.687 1095.66 557.721 1095.74 557.752C1095.75 557.746 1095.76 557.74 1095.78 557.734V557.753C1099.33 559.072 1104.23 561.671 1104.23 564.31C1104.23 566.987 1101.31 569.98 1096.28 573.156V614.683C1096.28 622.694 1089.32 629.443 1084.56 630.269C1074.8 632.917 1059.58 635.796 1048.08 639.031C1042.88 640.49 1046.88 640.55 1049.3 640.55H1074.85C1082.12 640.55 1081.66 635.493 1086.28 635.492C1092.26 635.492 1097.03 640.01 1097.03 643.528C1097.03 645.646 1096.23 646.906 1094.14 646.907H1068.13C1065.08 646.999 1063.01 647.264 1060.79 647.806C1055.74 649.045 1052.58 649.745 1048.08 650.985C1045.84 651.604 1048.64 654.522 1049.64 655.442C1049.68 655.479 1049.71 655.518 1049.74 655.557C1051.25 657.166 1052.29 659.228 1052.62 661.52C1052.63 661.519 1052.64 661.519 1052.64 661.519C1052.96 663.038 1053.58 663.778 1054.82 661.979C1055.8 660.54 1056.76 657.881 1057.12 655.602C1057.38 653.893 1056.69 653.162 1056.32 652.904C1056.25 652.866 1056.18 652.833 1056.12 652.803C1055.34 652.403 1054.9 651.964 1055.22 651.384C1055.46 650.924 1056.28 651.064 1057.51 651.364C1057.51 651.364 1075.88 655.341 1077.1 655.621C1078.2 655.861 1078.74 656.081 1078.74 656.681C1078.74 657.161 1078.14 657.421 1078.14 659.18V679.349H1078.66C1085.94 679.349 1085.48 674.291 1090.1 674.291C1096.07 674.291 1100.85 678.809 1100.85 682.327C1100.85 684.446 1100.05 685.705 1097.95 685.705H1029.47C1024.33 685.705 1024.73 690.204 1021.89 689.504C1016.2 688.125 1008.96 683.747 1006.34 680.489C1005.24 679.109 1005.94 678.389 1007.54 678.629C1011.2 679.189 1016.16 679.349 1026.59 679.349H1061.63V659.499C1061.63 659.491 1061.63 659.483 1061.63 659.475C1061.21 656.563 1058.93 657.382 1058.33 658.101C1057.36 659.3 1054.88 662.756 1051.36 668.47C1051.36 668.469 1051.36 668.469 1051.35 668.468C1049.47 671.857 1045.86 674.152 1041.7 674.152C1035.61 674.151 1030.67 669.211 1030.67 663.117C1030.67 658.717 1033.25 654.919 1036.97 653.148C1038.5 652.274 1041.26 651.42 1044.3 650.784C1049.06 649.765 1054.02 648.785 1058.51 647.766L1058.53 647.746C1059.35 647.546 1059.13 647.086 1058.21 647.046C1057.61 647.02 1055.11 646.951 1053.47 646.907H1033.31C1028.17 646.907 1028.57 651.404 1025.73 650.704C1020.03 649.325 1012.8 644.947 1010.18 641.689C1009.08 640.31 1009.78 639.59 1011.38 639.83C1014.37 640.288 1018.22 640.474 1025.22 640.529C1037.43 640.37 1071.1 631.974 1075.27 630.775C1079.24 629.626 1079.97 628.318 1079.82 625.431C1079.81 625.31 1079.8 625.187 1079.79 625.061C1079.79 625.001 1079.79 624.94 1079.78 624.878C1079.78 624.878 1079.78 624.878 1079.78 624.878C1079.77 624.574 1079.76 624.254 1079.76 623.918V581.386C1075.2 583.314 1070.17 585.266 1064.82 587.212C1056.72 607.644 1026.07 632.057 986.607 641.388C986.423 641.439 986.232 641.489 986.032 641.53C985.963 641.544 985.893 641.554 985.821 641.568C985.774 641.577 985.727 641.586 985.681 641.593C980.585 642.484 969.553 641.503 971.74 632.775C974.179 623.04 1000.15 605.589 1030.99 597.033C1033.92 596.219 1036.77 595.407 1039.52 594.603C1041.82 589.888 1043.19 585.251 1043.5 580.919C1043.5 580.921 1043.5 580.922 1043.5 580.922C1043.54 580.282 1043.02 579.881 1042.42 579.881H1016.66C1011.5 579.881 1011.9 584.379 1009.08 583.679C1003.38 582.3 996.167 577.923 993.528 574.664C992.409 573.285 993.129 572.565 994.728 572.805C998.386 573.365 1003.34 573.525 1013.78 573.525H1042.89C1042.89 573.518 1042.88 573.512 1042.88 573.505H1042.9C1046.92 573.505 1047.44 570.467 1047.66 569.327C1047.92 568.008 1048.84 567.948 1049.86 568.327C1051.16 568.828 1065.87 574.664 1066.73 575.004C1067.59 575.344 1067.83 575.804 1067.83 576.243C1067.83 577.003 1067.11 576.884 1066.77 579.762C1066.52 581.9 1065.97 584.118 1065.13 586.389C1070.62 584.432 1075.5 582.533 1079.76 580.702V562.211C1079.76 558.473 1079.08 556.974 1077.3 555.494C1075.53 554.015 1071.77 550.976 1071.09 550.437C1070.41 549.897 1069.69 549.178 1070.05 548.598ZM1051.38 668.475H1051.36C1051.36 668.473 1051.36 668.471 1051.36 668.47C1051.37 668.472 1051.38 668.474 1051.38 668.475ZM1038.85 595.925C1036.36 596.708 1033.85 597.486 1031.33 598.252C1007.76 605.448 987.792 615.703 977.917 627.297C968.614 638.245 980.378 639.519 985.841 637.874C1010.56 629.608 1030.24 612.418 1038.85 595.925ZM1102.17 564.63C1102.17 562.437 1096.76 561.732 1096.36 563.871C1096.31 564.478 1096.28 565.183 1096.28 566.009V572.016C1100.21 569.228 1102.17 566.741 1102.17 564.63Z" fill="#111111"/>
<path d="M1070.05 712.598C1070.35 712.118 1070.95 712.238 1071.91 712.598C1072.87 712.958 1093.78 720.994 1095.5 721.653C1095.99 721.842 1096.34 721.995 1096.59 722.138C1103.84 725.381 1111.25 729.769 1111.25 736.665C1111.25 741.776 1105.29 748.819 1096.27 756.846V841.811C1096.27 850.366 1088.34 857.482 1083.62 857.482C1081.42 857.482 1079.76 856.203 1079.76 851.046V770.319C1067.87 779.465 1054.34 789.13 1042.4 798.253V798.24C1036.39 803.646 1028.09 806.988 1018.94 806.988C1000.54 806.988 985.653 793.516 985.653 776.925C985.653 762.655 996.684 750.691 1011.46 747.623V747.619C1012.4 747.399 1012.2 746.48 1011.8 745.58C1010.94 743.681 1008.62 742.462 1006.96 741.782C1006.14 741.442 1005.58 740.863 1005.9 740.283C1006.16 739.824 1006.96 739.964 1008.2 740.264C1008.27 740.28 1026.57 744.242 1027.79 744.521C1028.89 744.781 1029.25 744.981 1029.25 745.58C1029.25 746.06 1028.95 746.22 1028.53 747.239C1028.35 747.679 1028.35 748 1028.67 748.14V748.168C1042.31 751.93 1052.22 763.389 1052.22 776.925C1052.22 781.147 1051.25 785.166 1049.51 788.813C1049.52 788.816 1049.52 788.818 1049.52 788.818C1048.62 790.897 1049.38 792.276 1050.82 791.236C1060.66 784.133 1070.78 776.782 1079.76 769.729V726.211C1079.76 722.473 1079.08 720.973 1077.31 719.494C1075.53 718.015 1071.77 714.976 1071.09 714.437C1070.41 713.897 1069.69 713.177 1070.05 712.598ZM1018.94 753.236C1009.76 753.236 1002.32 763.851 1002.32 776.944C1002.32 790.037 1009.76 800.652 1018.94 800.652C1028.11 800.652 1035.55 790.037 1035.55 776.944C1035.55 763.851 1028.11 753.236 1018.94 753.236ZM1109.21 737.025C1109.21 728.322 1096.6 724.46 1096.28 729.651C1096.28 729.768 1096.27 729.887 1096.27 730.009V755.756C1104.16 748.318 1109.21 741.79 1109.21 737.025Z" fill="#111111"/>
<path d="M898.572 220.637C898.872 220.157 899.472 220.277 900.431 220.637C901.392 220.997 922.286 229.027 924.006 229.687C925.724 230.346 925.744 230.566 925.784 231.445C925.824 232.524 924.785 233.204 924.785 238.038V293.2C924.785 301.751 916.854 308.864 912.139 308.864C912.132 308.864 912.125 308.863 912.118 308.863C909.262 308.983 900.355 308.185 899.812 308.105C899.172 308.025 898.693 308.245 899.552 308.425C899.552 308.425 899.515 308.423 899.445 308.42C900.42 308.633 901.089 308.778 901.29 308.824C902.389 309.084 902.748 309.284 902.748 309.883C902.748 310.362 902.449 310.523 902.029 311.541C901.857 311.963 901.851 312.217 902.133 312.36C915.774 315.683 925.704 325.905 925.704 338.014C925.704 352.818 910.86 364.806 892.539 364.806C874.218 364.806 859.374 352.818 859.374 338.014C859.374 325.271 870.372 314.615 885.118 311.895C885.875 311.613 885.627 310.749 885.307 309.883C884.587 307.905 882.13 306.766 880.472 306.087C879.653 305.747 879.093 305.168 879.413 304.589C879.596 304.265 880.046 304.241 880.729 304.358C880.717 304.352 880.711 304.349 880.711 304.349C880.711 304.349 889.522 306.087 895.795 306.247C901.889 306.387 904.806 306.247 906.045 305.527C907.206 304.853 908.156 303.476 908.271 300.229L908.282 299.554V247.632C908.187 245.331 907.766 244.163 907.483 245.75C905.071 259.563 901.555 280.377 897.18 291.608C896.797 292.825 896.271 293.982 895.645 295.061C895.628 295.093 895.613 295.126 895.596 295.158C895.595 295.158 895.593 295.157 895.589 295.156C892.883 299.749 888.35 302.87 885.227 302.87C883.029 302.87 881.371 301.591 881.371 296.437V281.352L881.37 281.353C881.37 279.994 880.851 279.875 880.711 280.754C879.288 289.697 877.617 298.145 875.835 303.626C875.659 304.313 875.438 304.939 875.175 305.501C875.148 305.57 875.123 305.639 875.097 305.707C875.095 305.706 875.09 305.702 875.082 305.694C874.3 307.263 873.166 308.302 871.7 308.744C869.363 309.443 866.526 307.446 865.048 305.149C864.568 304.429 856.876 293.9 849.783 284.191C848.792 282.819 846.348 282.138 844.287 284.106C844.188 284.212 844.089 284.318 843.989 284.424V284.43C843.988 284.429 843.987 284.428 843.986 284.427C835.357 293.657 824.594 301.472 811.807 308.169C811.624 308.282 811.43 308.388 811.225 308.484C806.21 310.822 796.76 311.082 796.76 301.353C796.76 291.623 806.669 280.754 819.296 278.057C824.834 276.883 829.932 276.725 834.264 277.029C841.726 264.891 843.27 254.934 843.271 250.965C843.271 249.147 843.19 247.908 841.393 246.43C839.595 244.951 836.957 242.834 836.298 242.294C835.639 241.755 834.899 241.036 835.259 240.456C835.558 239.997 836.178 240.117 837.117 240.456C838.063 240.798 860.032 249.286 861.711 249.886C862.85 250.305 863.589 251.504 863.029 253.103L863.05 253.082C859.706 262.506 855.037 270.924 849.099 278.473C849.102 278.475 849.104 278.477 849.104 278.477C847.367 280.614 850.323 279.575 852.001 280.913C857.036 284.909 865.447 284.19 870.941 282.392C872.839 281.772 873.499 283.232 873.818 284.271C874.279 285.804 874.672 287.281 875.006 288.696C875.012 288.676 875.016 288.666 875.017 288.665C875.017 288.665 875.357 290.164 876.176 289.824C876.655 289.625 878.153 288.525 878.673 285.668C879.192 282.81 881.37 267.167 881.37 261.354C881.37 261.354 881.371 261.355 881.371 261.357V244.591C881.371 240.855 880.691 239.356 878.913 237.878C877.135 236.4 873.38 233.363 872.7 232.823C872.021 232.284 871.302 231.565 871.661 230.985C871.961 230.506 872.56 230.626 873.519 230.985C874.478 231.345 895.377 239.377 897.095 240.036C898.812 240.695 898.832 240.915 898.872 241.794C898.912 242.873 897.873 243.552 897.873 248.387V270.87C897.887 270.853 897.894 270.844 897.894 270.844C897.894 272.362 897.993 274.14 898.612 273.361C901.369 269.865 905.665 247.868 908.003 235.241C908.2 234.19 908.247 233.311 908.227 232.613C908.035 230.028 907.319 228.771 905.825 227.529C904.047 226.051 900.291 223.014 899.611 222.475C898.932 221.935 898.213 221.216 898.572 220.637ZM892.539 317.575C883.429 317.575 876.056 326.726 876.056 338.014C876.056 349.302 883.429 358.452 892.539 358.452C901.649 358.452 909.021 349.302 909.021 338.014C909.021 326.726 901.649 317.575 892.539 317.575ZM833.662 277.991C819.084 277.087 808.511 282.764 804.071 291.643C798.098 303.61 805.431 306.347 810.485 302.811C810.522 302.785 810.559 302.761 810.596 302.736C821.429 294.299 828.749 285.73 833.662 277.991Z" fill="#111111"/>
</svg>
