<svg width="1920" height="1080" viewBox="0 0 1920 1080" fill="none" xmlns="http://www.w3.org/2000/svg">
<rect width="1920" height="1080" fill="#F2F2F4"/>
<path fill-rule="evenodd" clip-rule="evenodd" d="M890.219 380.239C890.53 379.741 891.154 379.865 892.151 380.239C893.155 380.616 914.878 388.964 916.664 389.649C916.767 389.689 916.863 389.729 916.954 389.766V389.753C919.156 390.605 926.219 392.101 926.219 395.362C926.219 398.601 923.155 402.052 917.474 405.772V444.865L917.477 445.209C917.658 452.19 923.464 445.407 926.593 441.562C929.543 437.948 930.686 432.755 935.484 432.755C941.695 432.755 946.66 437.449 946.66 441.105C946.66 443.307 945.829 444.616 943.648 444.616C931.163 444.616 927.071 443.91 923.83 446.341C921.088 448.397 919.924 449.602 918.948 451.243C918.29 452.334 917.36 454.874 916.971 455.975C915.268 462.469 909.586 467.521 905.431 468.328C895.298 471.087 879.422 474.088 867.431 477.459C862.147 478.942 866.027 479.034 868.552 479.037H895.148C898.516 478.911 899.853 478.139 900.419 476.233C900.834 474.883 901.623 474.405 902.683 474.82C904.033 475.34 916.477 480.118 917.37 480.471C918.263 480.824 918.513 481.302 918.513 481.759C918.513 482.548 917.453 483.795 917.453 486.059V514.519C917.453 523.409 909.206 530.804 904.304 530.805C902.019 530.805 900.294 529.476 900.294 524.116V489.196C900.294 488.689 900.279 487.276 899.887 485.644H858.872C853.533 485.644 853.949 490.317 850.999 489.59C845.079 488.156 837.558 483.608 834.837 480.222C833.694 478.788 834.421 478.04 836.083 478.289C837.931 478.572 840.098 478.756 843.082 478.871C855.252 478.976 891.26 470.146 895.661 468.88C899.653 467.731 900.535 466.48 900.403 463.673C900.376 463.402 900.354 463.117 900.34 462.816C900.338 462.795 900.337 462.773 900.335 462.751H900.337C900.323 462.435 900.314 462.103 900.314 461.754V414.682C897.296 416.018 894.041 417.387 890.565 418.789C883.163 440.331 850.739 466.747 808.7 476.688C808.509 476.742 808.31 476.793 808.101 476.836C808.024 476.852 807.944 476.864 807.863 476.879C807.821 476.887 807.779 476.895 807.737 476.901C802.443 477.828 790.975 476.809 793.248 467.737C795.782 457.621 823.058 440.44 854.82 430.594C857.958 429.622 860.969 428.662 863.857 427.719C866.178 422.867 867.554 418.101 867.84 413.648C867.782 413.09 867.288 412.75 866.724 412.75L866.723 412.749H839.947C834.588 412.749 835.003 417.423 832.074 416.696C826.154 415.263 818.654 410.713 815.912 407.327C814.749 405.894 815.497 405.146 817.158 405.395C820.96 405.977 826.112 406.144 836.956 406.144H867.202C871.377 406.143 871.917 402.986 872.145 401.802C872.415 400.431 873.371 400.368 874.431 400.763C875.781 401.282 891.071 407.348 891.964 407.701C892.857 408.054 893.106 408.532 893.106 408.989C893.106 409.779 892.358 409.654 892.005 412.645C891.803 414.377 891.41 416.158 890.835 417.977C894.302 416.571 897.455 415.215 900.314 413.912V394.386C900.314 390.501 899.608 388.943 897.76 387.406C895.911 385.869 892.005 382.711 891.299 382.15C890.593 381.59 889.845 380.842 890.219 380.239ZM863.203 429.04C860.591 429.967 857.914 430.908 855.174 431.861C833.175 439.527 809.929 449.996 799.667 462.045C790.004 473.417 802.215 474.745 807.894 473.039C833.788 464.382 854.364 446.304 863.203 429.04ZM924.225 396.256C923.67 393.306 918.039 392.922 917.513 396.831C917.49 397.284 917.474 397.783 917.474 398.333V404.543C922.641 400.9 924.57 398.085 924.225 396.256Z" fill="#111111"/>
<path fill-rule="evenodd" clip-rule="evenodd" d="M895.425 556.24C895.736 555.741 896.36 555.866 897.357 556.24C898.359 556.615 920.086 564.965 921.873 565.651C921.98 565.692 922.079 565.734 922.174 565.772C922.177 565.766 922.181 565.76 922.185 565.754C932.843 570.138 946.867 577.452 946.431 588.089C945.733 605.171 933.977 618.98 922.684 628.699V690.536C922.683 699.428 914.435 706.824 909.532 706.824C907.247 706.824 905.522 705.495 905.522 700.135V641.38C890.373 650.981 852.994 667.434 831.123 673.167C827.965 673.998 823.311 677.281 821.379 680.065C820.278 681.664 819.966 681.768 818.158 681.498C812.341 680.626 802.639 674.517 799.148 668.43C796.759 664.233 798.587 663.756 801.745 664.151C805.487 664.626 809.094 664.847 812.965 664.962V664.961C831.559 664.961 849.967 646.886 857.052 641.568C858.942 640.155 856.366 639.552 854.101 639.552C854.101 639.552 854.103 639.544 854.108 639.53C854.106 639.53 854.104 639.531 854.101 639.531C835.05 639.531 819.613 626.878 819.613 611.254C819.613 597.831 831.007 586.601 846.299 583.703C847.189 583.444 846.925 582.496 846.581 581.565C845.833 579.508 843.277 578.324 841.553 577.617C840.701 577.264 840.119 576.662 840.451 576.06C840.721 575.582 841.553 575.727 842.841 576.038C842.841 576.038 861.931 580.173 863.201 580.464C864.344 580.734 864.718 580.942 864.718 581.565C864.718 582.063 864.407 582.23 863.971 583.289C863.784 583.746 863.783 584.037 864.115 584.183V584.189C878.281 587.705 888.59 598.487 888.59 611.254C888.59 623.021 879.833 633.101 867.37 637.362C867.373 637.367 867.376 637.369 867.377 637.37C863.347 638.97 860.749 640.362 858.755 641.92C845.188 652.474 835.465 659.31 830.209 663.237C828.374 664.609 829.938 664.668 831.152 664.562C831.504 664.519 831.859 664.473 832.217 664.425C832.235 664.422 832.245 664.421 832.245 664.421H832.244C853.798 661.537 886.227 650.015 905.522 639.3V570.388C905.522 566.503 904.816 564.944 902.967 563.407C901.118 561.869 897.211 558.712 896.505 558.151C895.799 557.59 895.051 556.842 895.425 556.24ZM854.101 589.584C844.628 589.584 836.961 599.287 836.961 611.254C836.961 623.221 844.628 632.924 854.101 632.924C863.575 632.924 871.242 623.221 871.242 611.254C871.242 599.287 863.575 589.584 854.101 589.584ZM944.208 588.526C944.54 575.354 922.622 569.64 922.704 575.727C922.703 575.724 922.696 575.706 922.684 575.674V627.132C932.738 618.295 943.803 604.902 944.208 588.526Z" fill="#111111"/>
<path fill-rule="evenodd" clip-rule="evenodd" d="M1071.43 556.239C1071.74 555.741 1072.37 555.865 1073.37 556.239C1074.37 556.616 1096.09 564.963 1097.88 565.649C1097.97 565.684 1098.05 565.72 1098.13 565.752C1098.14 565.746 1098.16 565.74 1098.17 565.733V565.754C1101.87 567.125 1106.96 569.825 1106.96 572.567C1106.96 575.349 1103.92 578.46 1098.69 581.761V624.916C1098.69 633.239 1091.46 640.251 1086.51 641.112C1076.38 643.865 1060.56 646.856 1048.6 650.218C1043.2 651.734 1047.36 651.797 1049.87 651.797H1076.42C1083.98 651.797 1083.5 646.541 1088.3 646.541C1094.51 646.541 1099.48 651.235 1099.48 654.892C1099.48 657.094 1098.65 658.402 1096.46 658.402H1069.44C1066.27 658.498 1064.12 658.774 1061.81 659.338C1056.56 660.626 1053.28 661.353 1048.6 662.641C1046.28 663.285 1049.18 666.318 1050.22 667.273C1050.26 667.312 1050.3 667.352 1050.32 667.393C1051.9 669.064 1052.98 671.207 1053.32 673.589C1053.33 673.588 1053.34 673.588 1053.34 673.588C1053.67 675.167 1054.32 675.936 1055.6 674.066C1056.62 672.571 1057.62 669.808 1057.99 667.439C1058.27 665.666 1057.55 664.906 1057.17 664.636C1057.09 664.596 1057.02 664.562 1056.95 664.53C1056.14 664.115 1055.69 663.658 1056.02 663.056C1056.27 662.578 1057.12 662.724 1058.41 663.035C1058.41 663.035 1077.5 667.169 1078.77 667.46C1079.91 667.709 1080.47 667.937 1080.47 668.561C1080.47 669.059 1079.85 669.329 1079.85 671.157V692.118H1080.39C1087.95 692.118 1087.47 686.862 1092.27 686.862C1098.48 686.863 1103.44 691.557 1103.44 695.213C1103.44 697.415 1102.61 698.724 1100.43 698.724H1029.26C1023.92 698.724 1024.34 703.398 1021.39 702.671C1015.47 701.237 1007.95 696.688 1005.23 693.302C1004.09 691.868 1004.81 691.121 1006.47 691.37C1010.28 691.952 1015.43 692.118 1026.27 692.118H1062.69V671.489C1062.69 671.479 1062.69 671.468 1062.69 671.458C1062.25 668.438 1059.88 669.289 1059.26 670.036C1058.24 671.282 1055.67 674.874 1052.01 680.812C1052.01 680.812 1052.01 680.81 1052 680.81C1050.05 684.332 1046.29 686.717 1041.98 686.717C1035.64 686.717 1030.51 681.583 1030.51 675.25C1030.51 670.675 1033.19 666.727 1037.06 664.887C1038.65 663.979 1041.52 663.093 1044.68 662.433C1049.62 661.373 1054.77 660.355 1059.45 659.296L1059.47 659.275C1060.32 659.068 1060.09 658.589 1059.13 658.548C1058.5 658.52 1055.89 658.449 1054.18 658.402H1033.25C1027.91 658.402 1028.33 663.076 1025.38 662.35C1019.46 660.916 1011.94 656.367 1009.22 652.98C1008.07 651.547 1008.8 650.8 1010.46 651.049C1013.56 651.524 1017.57 651.718 1024.83 651.774C1037.5 651.618 1072.52 642.886 1076.85 641.639C1081 640.439 1081.74 639.073 1081.58 636.042C1081.57 635.921 1081.57 635.798 1081.56 635.672C1081.56 635.619 1081.55 635.565 1081.55 635.511C1081.55 635.511 1081.55 635.511 1081.55 635.511C1081.54 635.195 1081.53 634.863 1081.53 634.514V590.313C1076.79 592.317 1071.56 594.344 1066 596.367C1057.58 617.601 1025.73 642.971 984.721 652.668C984.529 652.721 984.33 652.773 984.122 652.815C984.037 652.833 983.949 652.847 983.861 652.863C983.831 652.869 983.802 652.874 983.773 652.879C978.485 653.81 966.994 652.797 969.269 643.717C971.803 633.6 998.788 615.464 1030.84 606.573C1033.89 605.726 1036.85 604.885 1039.71 604.049C1042.1 599.148 1043.53 594.329 1043.85 589.826C1043.85 589.828 1043.85 589.83 1043.85 589.83C1043.89 589.165 1043.35 588.749 1042.72 588.749H1015.95C1010.59 588.749 1011 593.423 1008.07 592.696C1002.15 591.263 994.654 586.713 991.912 583.327C990.749 581.894 991.497 581.146 993.158 581.395C996.96 581.977 1002.11 582.144 1012.96 582.144H1043.21C1043.2 582.137 1043.2 582.129 1043.2 582.122H1043.22C1047.4 582.122 1047.94 578.966 1048.17 577.781C1048.44 576.41 1049.39 576.348 1050.45 576.742C1051.8 577.262 1067.09 583.327 1067.98 583.681C1068.88 584.034 1069.13 584.512 1069.13 584.969C1069.13 585.758 1068.38 585.634 1068.03 588.625C1067.77 590.848 1067.19 593.152 1066.32 595.513C1072.02 593.479 1077.09 591.505 1081.53 589.603V570.386C1081.53 566.501 1080.82 564.943 1078.97 563.406C1077.12 561.869 1073.22 558.711 1072.51 558.15C1071.81 557.59 1071.06 556.842 1071.43 556.239ZM1052.03 680.817H1052.01C1052.01 680.816 1052.01 680.814 1052.01 680.812C1052.02 680.815 1052.03 680.817 1052.03 680.817ZM1039.02 605.422C1036.42 606.236 1033.81 607.044 1031.19 607.841C1006.7 615.319 985.95 625.976 975.688 638.024C966.024 649.396 978.235 650.724 983.915 649.019C1009.61 640.429 1030.07 622.564 1039.02 605.422ZM1104.82 572.899C1104.81 570.62 1099.19 569.888 1098.77 572.113C1098.72 572.743 1098.69 573.475 1098.69 574.333V580.575C1102.77 577.678 1104.82 575.093 1104.82 572.899Z" fill="#111111"/>
<path fill-rule="evenodd" clip-rule="evenodd" d="M1071.43 732.239C1071.74 731.74 1072.37 731.865 1073.37 732.239C1074.37 732.615 1096.09 740.962 1097.88 741.649C1098.39 741.845 1098.75 742.005 1099.02 742.153C1106.55 745.524 1114.25 750.084 1114.25 757.25C1114.25 762.561 1108.06 769.88 1098.69 778.222V866.518C1098.69 875.409 1090.44 882.805 1085.54 882.805C1083.25 882.805 1081.53 881.475 1081.53 876.116V792.224C1069.17 801.728 1055.11 811.772 1042.7 821.253V821.239C1036.45 826.857 1027.83 830.332 1018.31 830.332C999.203 830.332 983.727 816.329 983.727 799.088C983.727 784.258 995.191 771.826 1010.54 768.637V768.634C1011.52 768.405 1011.31 767.45 1010.9 766.515C1010.01 764.542 1007.6 763.274 1005.87 762.568C1005.02 762.215 1004.44 761.612 1004.77 761.009C1005.04 760.532 1005.87 760.677 1007.16 760.989C1007.16 760.989 1026.25 765.123 1027.52 765.414C1028.66 765.684 1029.03 765.892 1029.03 766.515C1029.03 767.014 1028.72 767.18 1028.29 768.239C1028.1 768.696 1028.1 769.028 1028.43 769.174V769.204C1042.6 773.114 1052.9 785.022 1052.9 799.088C1052.9 803.475 1051.9 807.652 1050.09 811.443C1050.09 811.446 1050.1 811.448 1050.1 811.448C1049.16 813.608 1049.95 815.042 1051.45 813.962C1061.68 806.579 1072.19 798.94 1081.53 791.611V746.385C1081.53 742.501 1080.82 740.943 1078.97 739.406C1077.12 737.869 1073.22 734.711 1072.51 734.15C1071.81 733.589 1071.06 732.841 1071.43 732.239ZM1018.31 774.471C1008.78 774.472 1001.05 785.503 1001.05 799.109C1001.05 812.715 1008.78 823.746 1018.31 823.746C1027.85 823.746 1035.58 812.716 1035.58 799.109C1035.58 785.502 1027.85 774.471 1018.31 774.471ZM1112.13 757.624C1112.13 748.58 1099.03 744.567 1098.69 749.961C1098.69 750.082 1098.69 750.206 1098.69 750.333V777.09C1106.88 769.36 1112.13 762.575 1112.13 757.624Z" fill="#111111"/>
<path fill-rule="evenodd" clip-rule="evenodd" d="M899.095 204.279C899.407 203.781 900.03 203.905 901.026 204.279C902.022 204.653 923.74 213 925.526 213.685C927.311 214.37 927.332 214.599 927.374 215.512C927.415 216.633 926.335 217.34 926.335 222.364V279.689C926.335 288.575 918.093 295.967 913.193 295.967C913.186 295.967 913.178 295.966 913.171 295.966C910.203 296.091 900.947 295.262 900.382 295.178C899.718 295.095 899.219 295.323 900.112 295.51C900.108 295.51 900.07 295.507 900 295.504C901.014 295.726 901.709 295.877 901.918 295.925C903.06 296.195 903.434 296.403 903.434 297.026C903.434 297.524 903.123 297.691 902.687 298.75C902.508 299.186 902.502 299.45 902.792 299.599C916.969 303.051 927.29 313.675 927.291 326.259C927.291 341.644 911.864 354.102 892.825 354.102C873.785 354.102 858.359 341.644 858.359 326.259C858.359 313.017 869.788 301.943 885.112 299.116C885.899 298.824 885.642 297.926 885.309 297.026C884.562 294.97 882.007 293.787 880.284 293.081C879.433 292.728 878.852 292.126 879.184 291.524C879.374 291.188 879.841 291.162 880.55 291.284C880.539 291.277 880.533 291.275 880.533 291.275C880.533 291.275 889.689 293.081 896.208 293.247C902.541 293.392 905.573 293.247 906.86 292.5C908.147 291.752 909.185 290.174 909.185 286.292V232.302C909.084 229.932 908.647 228.736 908.355 230.377C905.847 244.735 902.193 266.371 897.645 278.042C897.247 279.304 896.702 280.505 896.052 281.624C896.035 281.657 896.019 281.691 896.001 281.724C896.001 281.724 895.999 281.723 895.995 281.722C893.183 286.494 888.472 289.738 885.226 289.738C882.942 289.738 881.218 288.409 881.218 283.052V267.377L881.212 267.127C881.153 265.954 880.669 265.897 880.533 266.753C879.054 276.047 877.318 284.827 875.466 290.523C875.283 291.236 875.053 291.885 874.781 292.468C874.753 292.541 874.727 292.615 874.699 292.686C874.698 292.685 874.693 292.681 874.683 292.672C873.87 294.302 872.693 295.383 871.169 295.842C868.74 296.569 865.792 294.493 864.255 292.105C863.756 291.356 855.763 280.415 848.393 270.326C847.363 268.9 844.822 268.192 842.68 270.238C842.578 270.348 842.474 270.458 842.372 270.568V270.575C842.371 270.574 842.37 270.572 842.369 270.571C833.405 280.159 822.225 288.277 808.944 295.235C808.749 295.356 808.541 295.469 808.321 295.573C803.109 298.002 793.289 298.272 793.289 288.161C793.289 278.049 803.588 266.755 816.709 263.952C822.464 262.732 827.763 262.567 832.264 262.883C840.019 250.269 841.625 239.921 841.625 235.796C841.624 233.907 841.541 232.62 839.672 231.084C837.804 229.547 835.064 227.346 834.378 226.786C833.693 226.225 832.925 225.478 833.298 224.876C833.61 224.398 834.253 224.523 835.229 224.876C836.205 225.228 859.04 234.051 860.788 234.675C861.971 235.111 862.74 236.357 862.159 238.018L862.179 237.998C858.704 247.79 853.853 256.539 847.682 264.383C847.685 264.386 847.687 264.387 847.687 264.387C845.881 266.609 848.954 265.529 850.698 266.92C855.93 271.073 864.671 270.325 870.38 268.457C872.353 267.813 873.037 269.329 873.37 270.409C873.848 272.002 874.258 273.537 874.605 275.008C874.611 274.988 874.615 274.978 874.616 274.976C874.621 274.998 874.975 276.531 875.82 276.18C876.318 275.973 877.876 274.831 878.416 271.862C878.955 268.893 881.218 252.635 881.218 246.593V229.173C881.218 225.291 880.512 223.733 878.665 222.197C876.817 220.66 872.913 217.504 872.208 216.944C871.502 216.383 870.755 215.636 871.128 215.034C871.44 214.536 872.063 214.66 873.059 215.034C874.056 215.408 895.774 223.755 897.559 224.44C899.344 225.125 899.365 225.354 899.407 226.267C899.448 227.388 898.369 228.095 898.369 233.119V256.482C898.381 256.466 898.388 256.457 898.389 256.456C898.389 258.034 898.494 259.882 899.137 259.072C902.002 255.438 906.466 232.578 908.895 219.457C909.1 218.365 909.149 217.451 909.127 216.726C908.929 214.039 908.184 212.733 906.631 211.442C904.783 209.905 900.88 206.75 900.174 206.189C899.468 205.628 898.722 204.881 899.095 204.279ZM892.825 305.019C883.357 305.019 875.696 314.529 875.696 326.259C875.696 337.99 883.357 347.5 892.825 347.5C902.292 347.5 909.954 337.99 909.954 326.259C909.953 314.529 902.292 305.019 892.825 305.019ZM831.639 263.883C816.49 262.944 805.502 268.843 800.888 278.07C794.68 290.507 802.3 293.351 807.553 289.676C807.59 289.651 807.627 289.626 807.664 289.602C818.924 280.832 826.533 271.927 831.639 263.883Z" fill="#111111"/>
</svg>
