<svg width="1920" height="1080" viewBox="0 0 1920 1080" fill="none" xmlns="http://www.w3.org/2000/svg">
<rect width="1920" height="1080" fill="#F2F2F4"/>
<path d="M890.219 383.739C890.53 383.241 891.154 383.365 892.151 383.739C893.155 384.116 914.878 392.464 916.664 393.149C916.767 393.189 916.863 393.229 916.954 393.266V393.253C919.156 394.105 926.219 395.601 926.219 398.862C926.219 402.101 923.155 405.552 917.474 409.272V448.365L917.477 448.709C917.658 455.69 923.464 448.907 926.593 445.062C929.543 441.448 930.686 436.255 935.484 436.255C941.695 436.255 946.66 440.949 946.66 444.605C946.66 446.807 945.829 448.116 943.648 448.116C931.163 448.116 927.071 447.41 923.83 449.841C921.088 451.897 919.924 453.102 918.948 454.743C918.29 455.834 917.36 458.374 916.971 459.475C915.268 465.969 909.586 471.021 905.431 471.828C895.298 474.587 879.422 477.588 867.431 480.959C862.147 482.442 866.027 482.534 868.552 482.537H895.148C898.516 482.411 899.853 481.639 900.419 479.733C900.834 478.383 901.623 477.905 902.683 478.32C904.033 478.84 916.477 483.618 917.37 483.971C918.263 484.324 918.513 484.802 918.513 485.259C918.513 486.048 917.453 487.295 917.453 489.559V518.019C917.453 526.909 909.206 534.304 904.304 534.305C902.019 534.305 900.294 532.976 900.294 527.616V492.696C900.294 492.189 900.279 490.776 899.887 489.144H858.872C853.533 489.144 853.949 493.817 850.999 493.09C845.079 491.656 837.558 487.108 834.837 483.722C833.694 482.288 834.421 481.54 836.083 481.789C837.931 482.072 840.098 482.256 843.082 482.371C855.252 482.476 891.26 473.646 895.661 472.38C899.653 471.231 900.535 469.98 900.403 467.173C900.376 466.902 900.354 466.617 900.34 466.316C900.338 466.295 900.337 466.273 900.335 466.251H900.337C900.323 465.935 900.314 465.603 900.314 465.254V418.182C897.296 419.518 894.041 420.887 890.565 422.289C883.163 443.831 850.739 470.247 808.7 480.188C808.509 480.242 808.31 480.293 808.101 480.336C808.024 480.352 807.944 480.364 807.863 480.379C807.821 480.387 807.779 480.395 807.737 480.401C802.443 481.328 790.975 480.309 793.248 471.237C795.782 461.121 823.058 443.94 854.82 434.094C857.958 433.122 860.969 432.162 863.857 431.219C866.178 426.367 867.554 421.601 867.84 417.148C867.782 416.59 867.288 416.25 866.724 416.25L866.723 416.249H839.947C834.588 416.249 835.003 420.923 832.074 420.196C826.154 418.763 818.654 414.213 815.912 410.827C814.749 409.394 815.497 408.646 817.158 408.895C820.96 409.477 826.112 409.644 836.956 409.644H867.202C871.377 409.643 871.917 406.486 872.145 405.302C872.415 403.931 873.371 403.868 874.431 404.263C875.781 404.782 891.071 410.848 891.964 411.201C892.857 411.554 893.106 412.032 893.106 412.489C893.106 413.279 892.358 413.154 892.005 416.145C891.803 417.877 891.41 419.658 890.835 421.477C894.302 420.071 897.455 418.715 900.314 417.412V397.886C900.314 394.001 899.608 392.443 897.76 390.906C895.911 389.369 892.005 386.211 891.299 385.65C890.593 385.09 889.845 384.342 890.219 383.739ZM863.203 432.54C860.591 433.467 857.914 434.408 855.174 435.361C833.175 443.027 809.929 453.496 799.667 465.545C790.004 476.917 802.215 478.245 807.894 476.539C833.788 467.882 854.364 449.804 863.203 432.54ZM924.225 399.756C923.67 396.806 918.039 396.422 917.513 400.331C917.49 400.784 917.474 401.283 917.474 401.833V408.043C922.641 404.4 924.57 401.585 924.225 399.756Z" fill="#111111"/>
<path d="M895.425 549.74C895.736 549.241 896.36 549.366 897.357 549.74C898.359 550.115 920.086 558.465 921.873 559.151C921.98 559.192 922.079 559.234 922.174 559.272C922.177 559.266 922.181 559.26 922.184 559.254C932.843 563.638 946.867 570.952 946.431 581.589C945.733 598.671 933.977 612.48 922.684 622.199V684.036C922.683 692.928 914.435 700.324 909.532 700.324C907.247 700.324 905.522 698.995 905.522 693.635V634.88C890.373 644.481 852.995 660.934 831.123 666.667C827.965 667.498 823.311 670.781 821.379 673.565C820.278 675.164 819.966 675.268 818.158 674.998C812.341 674.126 802.639 668.017 799.148 661.93C796.759 657.733 798.587 657.256 801.745 657.651C805.487 658.126 809.094 658.347 812.965 658.462V658.461C831.559 658.461 849.967 640.386 857.052 635.068C858.942 633.655 856.366 633.052 854.101 633.052C854.101 633.052 854.103 633.044 854.108 633.03C854.106 633.03 854.104 633.031 854.101 633.031C835.05 633.031 819.613 620.378 819.613 604.754C819.613 591.331 831.007 580.101 846.299 577.203C847.189 576.944 846.925 575.996 846.581 575.065C845.833 573.008 843.277 571.824 841.553 571.117C840.701 570.764 840.119 570.162 840.451 569.56C840.721 569.082 841.553 569.227 842.841 569.538C842.841 569.538 861.931 573.673 863.201 573.964C864.344 574.234 864.718 574.442 864.718 575.065C864.718 575.563 864.407 575.73 863.971 576.789C863.784 577.246 863.783 577.537 864.115 577.683V577.689C878.281 581.205 888.59 591.987 888.59 604.754C888.59 616.521 879.833 626.601 867.37 630.862C867.373 630.867 867.376 630.869 867.377 630.87C863.347 632.47 860.749 633.862 858.755 635.42C845.188 645.974 835.465 652.81 830.209 656.737C828.374 658.109 829.938 658.168 831.152 658.062C831.504 658.019 831.859 657.973 832.217 657.925C832.235 657.922 832.245 657.921 832.245 657.921H832.244C853.798 655.037 886.227 643.515 905.522 632.8V563.888C905.522 560.003 904.816 558.444 902.967 556.907C901.118 555.369 897.211 552.212 896.505 551.651C895.799 551.09 895.051 550.342 895.425 549.74ZM854.101 583.084C844.628 583.084 836.961 592.787 836.961 604.754C836.961 616.721 844.628 626.424 854.101 626.424C863.575 626.424 871.242 616.721 871.242 604.754C871.242 592.787 863.575 583.084 854.101 583.084ZM944.208 582.026C944.54 568.854 922.622 563.14 922.704 569.227C922.703 569.224 922.696 569.206 922.684 569.174V620.632C932.738 611.795 943.803 598.402 944.208 582.026Z" fill="#111111"/>
<path d="M1071.43 549.739C1071.74 549.241 1072.37 549.365 1073.37 549.739C1074.37 550.116 1096.09 558.463 1097.88 559.149C1097.97 559.184 1098.05 559.22 1098.13 559.252C1098.14 559.246 1098.16 559.24 1098.17 559.233V559.254C1101.87 560.625 1106.96 563.325 1106.96 566.067C1106.96 568.849 1103.92 571.96 1098.69 575.261V618.416C1098.69 626.739 1091.46 633.751 1086.51 634.612C1076.38 637.365 1060.56 640.356 1048.6 643.718C1043.2 645.234 1047.36 645.297 1049.87 645.297H1076.42C1083.98 645.297 1083.5 640.041 1088.3 640.041C1094.51 640.041 1099.48 644.735 1099.48 648.392C1099.48 650.594 1098.65 651.902 1096.46 651.902H1069.44C1066.27 651.998 1064.12 652.274 1061.81 652.838C1056.56 654.126 1053.28 654.853 1048.6 656.141C1046.28 656.785 1049.18 659.818 1050.22 660.773C1050.26 660.812 1050.3 660.852 1050.32 660.893C1051.9 662.564 1052.98 664.707 1053.32 667.089C1053.33 667.088 1053.34 667.088 1053.34 667.088C1053.67 668.667 1054.32 669.436 1055.6 667.566C1056.62 666.071 1057.62 663.308 1057.99 660.939C1058.27 659.166 1057.55 658.406 1057.17 658.136C1057.09 658.096 1057.02 658.062 1056.95 658.03C1056.14 657.615 1055.69 657.158 1056.02 656.556C1056.27 656.078 1057.12 656.224 1058.41 656.535C1058.41 656.535 1077.5 660.669 1078.77 660.96C1079.91 661.209 1080.47 661.437 1080.47 662.061C1080.47 662.559 1079.85 662.829 1079.85 664.657V685.618H1080.39C1087.95 685.618 1087.47 680.362 1092.27 680.362C1098.48 680.363 1103.44 685.057 1103.44 688.713C1103.44 690.915 1102.61 692.224 1100.43 692.224H1029.26C1023.92 692.224 1024.34 696.898 1021.39 696.171C1015.47 694.737 1007.95 690.188 1005.23 686.802C1004.09 685.368 1004.81 684.621 1006.47 684.87C1010.28 685.452 1015.43 685.618 1026.27 685.618H1062.69V664.989C1062.69 664.979 1062.69 664.968 1062.69 664.958C1062.25 661.938 1059.88 662.789 1059.26 663.536C1058.24 664.782 1055.67 668.374 1052.01 674.312C1052.01 674.312 1052.01 674.31 1052 674.31C1050.05 677.832 1046.29 680.217 1041.98 680.217C1035.64 680.217 1030.51 675.083 1030.51 668.75C1030.51 664.175 1033.19 660.227 1037.06 658.387C1038.65 657.479 1041.52 656.593 1044.68 655.933C1049.62 654.873 1054.77 653.855 1059.45 652.796L1059.47 652.775C1060.32 652.568 1060.09 652.089 1059.13 652.048C1058.5 652.02 1055.89 651.949 1054.18 651.902H1033.25C1027.91 651.902 1028.33 656.576 1025.38 655.85C1019.46 654.416 1011.94 649.867 1009.22 646.48C1008.07 645.047 1008.8 644.3 1010.46 644.549C1013.56 645.024 1017.57 645.218 1024.83 645.274C1037.5 645.118 1072.52 636.386 1076.85 635.139C1081 633.939 1081.74 632.573 1081.58 629.542C1081.57 629.421 1081.57 629.298 1081.56 629.172C1081.56 629.119 1081.55 629.065 1081.55 629.011C1081.55 629.011 1081.55 629.011 1081.55 629.011C1081.54 628.695 1081.53 628.363 1081.53 628.014V583.813C1076.79 585.817 1071.56 587.844 1066 589.867C1057.58 611.101 1025.73 636.471 984.721 646.168C984.529 646.221 984.33 646.273 984.122 646.315C984.037 646.333 983.949 646.347 983.861 646.363C983.831 646.369 983.802 646.374 983.773 646.379C978.485 647.31 966.994 646.297 969.269 637.217C971.803 627.1 998.788 608.964 1030.84 600.073C1033.89 599.226 1036.85 598.385 1039.71 597.549C1042.1 592.648 1043.53 587.829 1043.85 583.326C1043.85 583.328 1043.85 583.33 1043.85 583.33C1043.89 582.665 1043.35 582.249 1042.72 582.249H1015.95C1010.59 582.249 1011 586.923 1008.07 586.196C1002.15 584.763 994.654 580.213 991.912 576.827C990.749 575.394 991.497 574.646 993.158 574.895C996.96 575.477 1002.11 575.644 1012.96 575.644H1043.21C1043.2 575.637 1043.2 575.629 1043.2 575.622H1043.22C1047.4 575.622 1047.94 572.466 1048.17 571.281C1048.44 569.91 1049.39 569.848 1050.45 570.242C1051.8 570.762 1067.09 576.827 1067.98 577.181C1068.88 577.534 1069.13 578.012 1069.13 578.469C1069.13 579.258 1068.38 579.134 1068.03 582.125C1067.77 584.348 1067.19 586.652 1066.32 589.013C1072.02 586.979 1077.09 585.005 1081.53 583.103V563.886C1081.53 560.001 1080.82 558.443 1078.97 556.906C1077.12 555.369 1073.22 552.211 1072.51 551.65C1071.81 551.09 1071.06 550.342 1071.43 549.739ZM1052.03 674.317H1052.01C1052.01 674.316 1052.01 674.314 1052.01 674.312C1052.02 674.315 1052.03 674.317 1052.03 674.317ZM1039.02 598.922C1036.42 599.736 1033.81 600.544 1031.19 601.341C1006.7 608.819 985.95 619.476 975.688 631.524C966.024 642.896 978.235 644.224 983.915 642.519C1009.61 633.929 1030.07 616.064 1039.02 598.922ZM1104.82 566.399C1104.81 564.12 1099.19 563.388 1098.77 565.613C1098.72 566.243 1098.69 566.975 1098.69 567.833V574.075C1102.77 571.178 1104.82 568.593 1104.82 566.399Z" fill="#111111"/>
<path d="M1071.43 715.739C1071.74 715.24 1072.37 715.365 1073.37 715.739C1074.37 716.115 1096.09 724.462 1097.88 725.149C1098.39 725.345 1098.75 725.505 1099.02 725.653C1106.55 729.024 1114.25 733.584 1114.25 740.75C1114.25 746.061 1108.06 753.38 1098.69 761.722V850.018C1098.69 858.909 1090.44 866.305 1085.54 866.305C1083.25 866.305 1081.53 864.975 1081.53 859.616V775.724C1069.17 785.228 1055.11 795.272 1042.7 804.753V804.739C1036.45 810.357 1027.83 813.832 1018.31 813.832C999.203 813.832 983.727 799.829 983.727 782.588C983.727 767.758 995.191 755.326 1010.54 752.137V752.134C1011.52 751.905 1011.31 750.95 1010.9 750.015C1010.01 748.042 1007.6 746.774 1005.87 746.068C1005.02 745.715 1004.44 745.112 1004.77 744.509C1005.04 744.032 1005.87 744.177 1007.16 744.489C1007.16 744.489 1026.25 748.623 1027.52 748.914C1028.66 749.184 1029.03 749.392 1029.03 750.015C1029.03 750.514 1028.72 750.68 1028.29 751.739C1028.1 752.196 1028.1 752.528 1028.43 752.674V752.704C1042.6 756.614 1052.9 768.522 1052.9 782.588C1052.9 786.975 1051.9 791.152 1050.09 794.943C1050.09 794.946 1050.1 794.948 1050.1 794.948C1049.16 797.108 1049.95 798.542 1051.45 797.462C1061.68 790.079 1072.19 782.44 1081.53 775.111V729.885C1081.53 726.001 1080.82 724.443 1078.97 722.906C1077.12 721.369 1073.22 718.211 1072.51 717.65C1071.81 717.089 1071.06 716.341 1071.43 715.739ZM1018.31 757.971C1008.78 757.972 1001.05 769.003 1001.05 782.609C1001.05 796.215 1008.78 807.246 1018.31 807.246C1027.85 807.246 1035.58 796.216 1035.58 782.609C1035.58 769.002 1027.85 757.971 1018.31 757.971ZM1112.13 741.124C1112.13 732.08 1099.03 728.067 1098.69 733.461C1098.69 733.582 1098.69 733.706 1098.69 733.833V760.59C1106.88 752.86 1112.13 746.075 1112.13 741.124Z" fill="#111111"/>
<path d="M899.095 217.779C899.407 217.281 900.03 217.405 901.026 217.779C902.022 218.153 923.74 226.5 925.526 227.185C927.311 227.87 927.332 228.099 927.374 229.012C927.415 230.133 926.335 230.84 926.335 235.864V293.189C926.335 302.075 918.093 309.467 913.193 309.467C913.186 309.467 913.178 309.466 913.171 309.466C910.203 309.591 900.947 308.762 900.382 308.678C899.718 308.595 899.219 308.823 900.112 309.01C900.108 309.01 900.07 309.007 900 309.004C901.014 309.226 901.709 309.377 901.918 309.425C903.06 309.695 903.434 309.903 903.434 310.526C903.434 311.024 903.123 311.191 902.687 312.25C902.508 312.686 902.502 312.95 902.792 313.099C916.969 316.551 927.29 327.175 927.291 339.759C927.291 355.144 911.864 367.602 892.825 367.602C873.785 367.602 858.359 355.144 858.359 339.759C858.359 326.517 869.788 315.443 885.112 312.616C885.899 312.324 885.642 311.426 885.309 310.526C884.562 308.47 882.007 307.287 880.284 306.581C879.433 306.228 878.852 305.626 879.184 305.024C879.374 304.688 879.841 304.662 880.55 304.784C880.539 304.777 880.533 304.775 880.533 304.775C880.533 304.775 889.689 306.581 896.208 306.747C902.541 306.892 905.573 306.747 906.86 306C908.147 305.252 909.185 303.674 909.185 299.792V245.802C909.084 243.432 908.647 242.236 908.355 243.877C905.847 258.235 902.193 279.871 897.645 291.542C897.247 292.804 896.702 294.005 896.052 295.124C896.035 295.157 896.019 295.191 896.001 295.224C896.001 295.224 895.999 295.223 895.995 295.222C893.183 299.994 888.472 303.238 885.226 303.238C882.942 303.238 881.218 301.909 881.218 296.552V280.877L881.212 280.627C881.153 279.454 880.669 279.397 880.533 280.253C879.054 289.547 877.318 298.327 875.466 304.023C875.283 304.736 875.053 305.385 874.781 305.968C874.753 306.041 874.727 306.115 874.699 306.186C874.698 306.185 874.693 306.181 874.683 306.172C873.87 307.802 872.693 308.883 871.169 309.342C868.74 310.069 865.792 307.993 864.255 305.605C863.756 304.856 855.763 293.915 848.393 283.826C847.363 282.4 844.822 281.692 842.68 283.738C842.578 283.848 842.474 283.958 842.372 284.068V284.075C842.371 284.074 842.37 284.072 842.369 284.071C833.405 293.659 822.225 301.777 808.944 308.735C808.749 308.856 808.541 308.969 808.321 309.073C803.109 311.502 793.289 311.772 793.289 301.661C793.289 291.549 803.588 280.255 816.709 277.452C822.464 276.232 827.763 276.067 832.264 276.383C840.019 263.769 841.625 253.421 841.625 249.296C841.624 247.407 841.541 246.12 839.672 244.584C837.804 243.047 835.064 240.846 834.378 240.286C833.693 239.725 832.925 238.978 833.298 238.376C833.61 237.898 834.253 238.023 835.229 238.376C836.205 238.728 859.04 247.551 860.788 248.175C861.971 248.611 862.74 249.857 862.159 251.518L862.179 251.498C858.704 261.29 853.853 270.039 847.682 277.883C847.685 277.886 847.687 277.887 847.687 277.887C845.881 280.109 848.954 279.029 850.698 280.42C855.93 284.573 864.671 283.825 870.38 281.957C872.353 281.313 873.037 282.829 873.37 283.909C873.848 285.502 874.258 287.037 874.605 288.508C874.611 288.488 874.615 288.478 874.616 288.476C874.621 288.498 874.975 290.031 875.82 289.68C876.318 289.473 877.876 288.331 878.416 285.362C878.955 282.393 881.218 266.135 881.218 260.093V242.673C881.218 238.791 880.512 237.233 878.665 235.697C876.817 234.16 872.913 231.004 872.208 230.444C871.502 229.883 870.755 229.136 871.128 228.534C871.44 228.036 872.063 228.16 873.059 228.534C874.056 228.908 895.774 237.255 897.559 237.94C899.344 238.625 899.365 238.854 899.407 239.767C899.448 240.888 898.369 241.595 898.369 246.619V269.982C898.381 269.966 898.388 269.957 898.389 269.956C898.389 271.534 898.494 273.382 899.137 272.572C902.002 268.938 906.466 246.078 908.895 232.957C909.1 231.865 909.149 230.951 909.127 230.226C908.929 227.539 908.184 226.233 906.631 224.942C904.783 223.405 900.88 220.25 900.174 219.689C899.468 219.128 898.722 218.381 899.095 217.779ZM892.825 318.519C883.357 318.519 875.696 328.029 875.696 339.759C875.696 351.49 883.357 361 892.825 361C902.292 361 909.954 351.49 909.954 339.759C909.953 328.029 902.292 318.519 892.825 318.519ZM831.639 277.383C816.49 276.444 805.502 282.343 800.888 291.57C794.68 304.007 802.3 306.851 807.553 303.176C807.59 303.151 807.627 303.126 807.664 303.102C818.924 294.332 826.533 285.427 831.639 277.383Z" fill="#111111"/>
</svg>
