<svg width="24" height="24" viewBox="0 0 24 24" fill="none" xmlns="http://www.w3.org/2000/svg">
<rect x="8" y="8" width="8" height="8" fill="white"/>
<path d="M22.5407 6.68668C22.2794 5.75896 21.5559 5.03136 20.6241 4.77415C18.9082 4.31545 12.0105 4.31545 12.0105 4.31545C12.0105 4.31545 5.12583 4.30445 3.39211 4.77415C2.46508 5.03205 1.73817 5.75896 1.47959 6.68668C1.1543 8.44516 0.992689 10.225 1.00025 12.013C0.996815 13.7894 1.15774 15.5664 1.47959 17.3139C1.73817 18.2416 2.46508 18.9692 3.39211 19.2305C5.10795 19.6892 12.0105 19.6892 12.0105 19.6892C12.0105 19.6892 18.8911 19.6892 20.6241 19.2305C21.5559 18.9692 22.2794 18.2423 22.5407 17.3139C22.8564 15.5664 23.0104 13.7894 22.9994 12.013C23.0104 10.225 22.8598 8.44516 22.5407 6.68668ZM9.80708 15.3051V8.70649L15.5488 12.013L9.80708 15.3051Z" fill="#E62117"/>
</svg>
