<svg width="35" height="24" viewBox="0 0 35 24" fill="none" xmlns="http://www.w3.org/2000/svg">
<path d="M32 21H3V3H32V21ZM5 19H30V5H5V19ZM10.5 7C12.433 7 14 8.567 14 10.5C14 12.433 12.433 14 10.5 14H9V17H7V7H10.5ZM18.5 7C20.433 7 22 8.567 22 10.5V13.5C22 15.433 20.433 17 18.5 17H15V7H18.5ZM28.5 9H25.5V12H28.5V14H25.5V17H23.5V7H28.5V9ZM17 15H18.5C19.3284 15 20 14.3284 20 13.5V10.5C20 9.67157 19.3284 9 18.5 9H17V15ZM9 12H10.5C11.3284 12 12 11.3284 12 10.5C12 9.67157 11.3284 9 10.5 9H9V12Z" fill="#1A1A1C"/>
</svg>
