<svg width="24" height="24" viewBox="0 0 24 24" fill="none" xmlns="http://www.w3.org/2000/svg">
<path d="M4 17C4 18.1046 4.89543 19 6 19H18C19.1046 19 20 18.1046 20 17V16H22V17C22 19.2091 20.2091 21 18 21H6C3.79086 21 2 19.2091 2 17V16H4V17ZM19.3369 12C20.4977 12.0001 21.1307 12.3421 21.6436 12.6221C22.0446 12.841 22.3283 13 23 13V15C21.8353 15 21.2004 14.659 20.6855 14.3779C20.2827 14.158 20.0023 14.0001 19.3369 14C18.6708 14 18.3872 14.158 17.9834 14.3779C17.4692 14.6579 16.8335 15 15.6729 15C14.5124 15 13.8774 14.6579 13.3633 14.3779C12.9593 14.1579 12.676 14 12.0098 14C11.3436 14 11.0602 14.158 10.6562 14.3779C10.1421 14.6579 9.50632 15 8.3457 15C7.18552 14.9999 6.55052 14.6583 6.03613 14.3789C5.63184 14.1593 5.34522 14 4.67285 14C4.00125 14 3.71755 14.1584 3.31445 14.3779C2.79934 14.6584 2.16472 15 1 15V13C1.67171 13 1.9553 12.8416 2.3584 12.6221C2.8735 12.3416 3.50819 12 4.67285 12C5.83686 12 6.47391 12.3407 6.99023 12.6211C7.39632 12.8416 7.67963 12.9999 8.3457 13C9.0118 13 9.29538 12.842 9.69922 12.6221C10.2134 12.3421 10.8491 12 12.0098 12C13.1703 12 13.8052 12.3421 14.3193 12.6221C14.7234 12.8421 15.0067 13 15.6729 13C16.339 13 16.6225 12.842 17.0264 12.6221C17.5406 12.3421 18.1763 12 19.3369 12ZM23 11H1V9H23V11ZM12 2C13.2117 2 15.598 2.09379 17.7139 2.82227C18.7759 3.18792 19.8396 3.73691 20.6475 4.57715C21.4781 5.44118 22 6.57689 22 8H20C20 7.11419 19.6927 6.47024 19.2061 5.96387C18.6965 5.43381 17.9543 5.0209 17.0625 4.71387C15.2705 4.0969 13.1567 4 12 4C10.8433 4 8.72953 4.0969 6.9375 4.71387C6.04571 5.0209 5.30349 5.43381 4.79395 5.96387C4.30727 6.47024 4 7.11419 4 8H2C2 6.57689 2.52193 5.44118 3.35254 4.57715C4.16038 3.73691 5.2241 3.18792 6.28613 2.82227C8.40199 2.09379 10.7883 2 12 2Z" fill="#1A1A1C"/>
</svg>
