<svg width="37" height="24" viewBox="0 0 37 24" fill="none" xmlns="http://www.w3.org/2000/svg">
<path d="M34 21H3V3H34V21ZM5 19H32V5H5V19ZM11.75 7.5C13.5449 7.5 15 8.95507 15 10.75C15 12.5449 13.5449 14 11.75 14H10V16.5H8V7.5H11.75ZM19.5 7.5C21.433 7.5 23 9.067 23 11V13C23 14.933 21.433 16.5 19.5 16.5H16V7.5H19.5ZM29.5 9.5H26.5V12H29.5V14H26.5V16.5H24.5V7.5H29.5V9.5ZM18 14.5H19.5C20.3284 14.5 21 13.8284 21 13V11C21 10.1716 20.3284 9.5 19.5 9.5H18V14.5ZM10 12H11.75C12.4404 12 13 11.4404 13 10.75C13 10.0596 12.4404 9.5 11.75 9.5H10V12Z" fill="#1A1A1C"/>
</svg>
