<svg width="42" height="24" viewBox="0 0 42 24" fill="none" xmlns="http://www.w3.org/2000/svg">
<path d="M34.6846 4.63184H41V9.89453H38.5742C39.1163 11.0074 39.4209 12.2574 39.4209 13.5791C39.4209 18.2317 35.6526 22 31 22C26.3475 21.9999 22.5791 18.2316 22.5791 13.5791C22.5791 12.2575 22.8837 11.0074 23.4258 9.89453H21V4.63184H27.3154V2H34.6846V4.63184ZM31 10.4209C29.2632 10.421 27.8418 11.8423 27.8418 13.5791C27.8418 15.3159 29.2633 16.7372 31 16.7373C32.7368 16.7373 34.1582 15.3159 34.1582 13.5791C34.1582 11.8423 32.7368 10.4209 31 10.4209Z" fill="#1A1A1C"/>
<path d="M21 9.89453H14.5508C15.2047 11.9943 16.942 14.9861 21.5361 17.0137L20.4736 19.4219L19.4111 21.8291C15.0549 19.9066 12.4972 17.2699 10.998 14.7559C9.49852 17.2699 6.94157 19.9065 2.58984 21.8291L0.462891 17.0146C5.05212 14.9871 6.79153 11.9947 7.44727 9.89453H1V4.63184H21V9.89453Z" fill="#1A1A1C"/>
</svg>
